<svg xmlns="http://www.w3.org/2000/svg" viewBox="0 0 370.88 370.88"><path d="M355.6 66.16H15.28C6.841 66.16 0 73.001 0 81.44v208c0 8.439 6.841 15.28 15.28 15.28H355.6c8.439 0 15.28-6.841 15.28-15.28v-208c0-8.439-6.841-15.28-15.28-15.28zm-340.32 12H355.6a3.28 3.28 0 0 1 3.12 2.32L185.44 188.72 12.16 80.48a3.28 3.28 0 0 1 3.12-2.32zm-3.28 16L136.64 172 12 270.88V94.16zm346.88 195.2a3.28 3.28 0 0 1-3.28 3.28H15.28a3.28 3.28 0 0 1-3.28-3.28v-3.2l135.44-107.04 34.8 21.76a5.999 5.999 0 0 0 6.4 0l34.8-21.76 135.44 107.04v3.2zm0-18.48l-124.96-98.56 124.96-77.44v176z"/></svg>