<svg xmlns="http://www.w3.org/2000/svg" width="60" height="60" viewBox="0 0 512 512"><path d="M0 256c0 141.391 114.594 256 256 256 141.375 0 256-114.609 256-256S397.375 0 256 0C114.594 0 0 114.609 0 256zm472 0c0 119.297-96.719 216-216 216-119.312 0-216-96.703-216-216S136.688 40 256 40c119.281 0 216 96.703 216 216z"/><path d="M148.688 206.688c-6.25 6.25-6.25 16.375 0 22.625l96 96c6.25 6.25 16.375 6.25 22.625 0l96-96C366.438 226.188 368 222.094 368 218s-1.562-8.188-4.688-11.312c-6.25-6.25-16.375-6.25-22.625 0L256 291.375l-84.688-84.688c-6.25-6.249-16.374-6.249-22.624.001z"/></svg>