<svg width="359" height="277" fill="none" xmlns="http://www.w3.org/2000/svg"><path fill-rule="evenodd" clip-rule="evenodd" d="M333.541 277h-81.807c-2.723-26.396-28.316-49.756-51.307-68.569-3.994-3.266-5.969-7.052-5.969-10.48 0-6.209 6.208-11.299 16.529-10.087 9.903 1.165 20.553 8.783 24.382 11.922v-59.728c0-7.236 7.524-13.1 16.365-13.1 8.84 0 16.364 5.864 16.364 13.1v29.905c0 5.239 6.657 5.92 7.509.681 1.765-10.734 20.613-12.165 22.049 2.677.344 3.647 5.923 4.386 7.09.173 2.663-9.66 20.448-9.752 22.557 5.079.539 3.878 6.507 4.663 6.926.23.419-4.478 2.319-6.244 4.981-6.244 8.975 0 18.878 13.504 18.878 29.513 0 28.761-24.547 28.831-24.547 74.928zM186.979 27.862C230.852 9.199 294.215 1.524 359 0v157.475l-62.496-13.608c0-1.674 0-5.667-.209-7.329-2.094-16.378-19.371-31.139-44.561-31.509-25.863.554-42.871 15.039-44.741 33.263-.074 2.412-.044 25-.044 27.493-16.44 0-33.238 8.113-38.997 22.333-3.141 7.825-2.303 16.32 1.885 23.822 4.502 8.056 10.396 11.772 18.04 18.328-9.514 1.304-19.371.369-28.316-2.782C116.6 212.309 58.891 205.846 0 204.461V0c64.784 1.524 128.163 9.199 172.021 27.862v122.18l14.958-5.575V27.862zM44.875 146.937c31.203 3.601 66.58 11.819 89.75 19.309v-12.28c-24.951-7.179-58.053-15.177-89.75-18.767v11.738zm0-23.441c31.203 3.601 66.58 11.807 89.75 19.298v-12.269c-24.951-7.179-58.053-15.189-89.75-18.767v11.738zm0-23.441c31.203 3.589 66.58 11.807 89.75 19.309v-12.28c-24.951-7.18-58.053-15.19-89.75-18.767v11.738zm0-23.441c31.203 3.589 66.58 11.807 89.75 19.297v-12.28c-24.951-7.179-58.053-15.177-89.75-18.767v11.75zm269.25-11.75c-31.697 3.59-64.799 11.588-89.75 18.767v12.28c23.17-7.49 58.547-15.708 89.75-19.297v-11.75zM44.875 41.308c31.697 3.578 64.799 11.587 89.75 18.766v12.28c-23.17-7.501-58.547-15.707-89.75-19.309V41.308zm269.25 11.737c-31.203 3.602-66.58 11.808-89.75 19.31v-12.28c24.951-7.18 58.053-15.19 89.75-18.767v11.737z" fill="#A3A3A3"/></svg>