<svg width="309" height="282" fill="red" xmlns="http://www.w3.org/2000/svg"><path d="M199.5 0C89.326 0 0 78.356 0 175s89.326 175 199.5 175S399 271.644 399 175 309.674 0 199.5 0zm159.051 132.679c-.981-.846-2.111-1.575-3.424-2.012-4.29-1.473-22.444 8.793-25.187 3.733-1.796-3.369-5.437 2.158-9.609.117-2.012-.977-7.631-7.584-10.158-6.782-5.187 1.634 7.963 14.205 11.537 15.852 3.375-2.245 14.298-6.839 16.659-.568 4.505 11.841-12.386 24.821-21.014 31.66-12.885 10.238-10.474-6.621-19.269-12.542-4.605-3.106-4.555-9.727-9.227-12.016-2.078-1.036-11.637-10.675-11.537-11.973l-.283 2.435c-1.579 1.05-4.938-3.937-5.303-4.739 0 4.346 8.063 11.258 10.739 14.743 4.539 5.965 6.983 14.657 12.569 19.528 2.976 2.625 14.397 13.46 17.373 13.241l15.312-6.373c10.789 2.246-25.453 47.207-28.895 52.777-2.842 4.682 2.311 16.217 1.896 21.73-.483 6.373-6.218 8.443-11.638 11.914-5.819 3.719-4.455 10.967-9.343 13.621-8.662 4.681-14.913 19.921-27.249 19.848-3.64-.015-19.135 5.308-21.163.102-1.58-3.763-3.707-6.635-5.919-10.354-2.178-3.646-.249-7.438-2.909-10.661-1.829-2.245-7.963-7.32-8.529-9.975-.033-2.289 1.962-9.216 4.705-10.427 3.841-1.721.732-6.737.266-9.668-.798-5.207-4.488-9.509-8.894-12.527-6.534-4.405-3.142-7.905-1.629-14.205 0-3.004-2.095-6.941-6.684-5.775-9.476 2.421-6.583-6.489-13.499-6.081-4.971.306-9.028 3.077-13.649 4.302-5.802 1.517-11.754-1.21-17.506-1.837-23.625-2.611-31.338-26.309-25.171-43.4.616-2.8-1.911-7.977-.798-10.15 2.644-5.134 8.063-10.967 12.768-14.89 2.66-2.217 6.069-1.648 9.194-3.369 4.821-2.654 4.888-8.137 9.609-11.506 6.717-4.783 15.894-4.681 24.638-5.717 4.672-.539 22.444-3.908 25.237-.875 0 .569 3.209 8.911-.316 8.43 7.282.335 17.64 11.025 24.539 8.531 3.541-1.298 2.244-10.85 9.526-6.227 4.406 2.771 24.106 4.01 28.196 1.021 2.527-1.823 3.924-13.694.881-15.036 1.945 1.692-10.274 1.823-11.405 1.444-2.028-.642-3.906 1.677-7.148.364 1.945.803-10.823-5.22-3.658-9.829-3.009 1.925-5.802-.539-9.044 1.59-2.244 1.589 1.031 2.639-2.161 4.04-5.071 2.26-8.894-7.73-10.79-8.853-1.961-1.122-17.024-10.397-12.917-4.345l13.25 11.564c-.665.379-3.475-4.214-3.475-.86.881-1.984.333 8.531-1.745 5.104-.931-1.313 1.512-2.042.099-3.952 0-1.24-3.823-2.465-4.572-3.325-2.094-2.29-7.68-7.321-10.706-8.531-.831-.35-12.818 1.283-13.832 1.618a25.83 25.83 0 0 0-3.009 4.58 35.419 35.419 0 0 0-7.033 3.149l-2.643 5.192c-1.131.89-12.834 4.288-12.901 4.419.499-1.108-8.18-2.508-7.598-4.725.632-2.436 3.575-10.019 2.81-12.79-.798-2.902 18.038 4.186 19.252-3.47.482-3.31.781-7.175-5.254-7.744 1.147.116 11.671-3.631 13.417-5.309 2.46-2.464 8.079-6.518 12.152-6.518 4.755 0 3.741-6.082 5.919-9.071 2.211.773-1.18 5.541 1.463 7.466-.166-1.516 7.481.832 8.213.482 1.745-.817 11.488-.336 9.991-4.36-1.679-4.084.865-2.874 3.043-3.72-.333.117 4.123-6.679 6.035-6.65-1.729-1.297-6.617 1.634-8.579 1.503-5.12-.35-2.942-7.657-1.014-9.8 1.496-1.692-4.09-3.763-4.156-.525-.1 4.841-5.22 9.23-4.04 15.677 1.812 9.712-12.352-2.348-13.566-1.677-4.705 2.508-8.562-3.15-6.118-6.548 2.477-3.471 8.479-3.296 10.956-7 1.729-2.61 3.774-5.673 6.45-7.642 8.994-6.62 11.455-1.327 20.432-.612 8.745.7 2.96 1.822 1.746 4.768-1.164 2.8 4.805 3.807 6.866 1.459 1.18-1.342 3.857-4.755 5.004-7.277 1.164-2.553 9.61-2.917 8.762-5.323 45.22 16.741 80.248 50.53 94.662 92.137zm-184.753-55.11l1.13-1.269 1.214-.277c.698-.496 1.43-1.72 2.51-1.517.715.132 2.427 1.386 1.846 2.159-.615.787-1.098-.715-1.347 1.472-.299 2.465-3.126 2.436-5.204 3.238-1.446.54-2.909-.263-1.496-1.517l1.463-1.575-.116-.714zm7.348 3.573c.765-.657 2.294-.117 2.51-1.371.233-1.225 1.297-2.596-.133-4.886-.365-.612 1.929-1.195.848-1.998l-1.812.467s2.577-9.742 6.052-5.337l-1.48 1.502c2.244 1.954 2.859 6.854 3.574 10.018 2.112.963 5.387 1.138 1.63 2.8 1.945-.291-10.275 4.58-11.887 2.596-1.197-1.21 5.27-2.027 5.104-2.523-.067-.16-5.271-.291-4.406-1.268zm23.774-51.727l-5.919 4.754c-5.985 4.346-21.28 12.877-29.808 10.281-8.712-2.625-27.382 9.727-30.358 9.815-1.114.043.034-9.348 5.985-10.048-2.344.306 16.509-8.386 19.701-11.74 11.272-2.13 22.959-3.31 34.979-3.31l5.42.248zm-84.555 17.354c1.164 1.196 4.622 1.341-.432 4.2-3.043 1.604-6.268 11.798-9.111 11.798-8.479 3.252-9.01-6.402-18.437 6.023-1.297 1.677-6.567 2.304-10.706 3.441 11.388-10.033 24.405-18.652 38.686-25.462zM33.25 175c0-7.89.914-15.575 2.31-23.129l4.855 2.698c1.879 1.968 1.879 10.485 2.81 13.285 2.31 7.029 8.047 10.952 12.435 17.354 2.577 3.807 6.883 13.461 5.52 17.457 1.812-2.611 17.972 12.016 20.93 15.064 6.95 7.175 12.303 15.867 1.015 22.954-3.64 2.304 5.553 16.625.815 20.154l-6.069 1.371c-3.74 2.013-3.906 5.79-2.76 9.202C49.144 245.671 33.25 211.969 33.25 175zm238.519-84.919c1.38-.146-1.779 2.436-1.779 2.436.549 3.733 3.691 5.775 9.659 7.685 7.265 2.29.632 6.636-3.541 5.615-2.311-.569-14.198-3.719-14.613.364 0 2.436-11.289.015-9.526-2.552 1.213-1.735.831-5.644 3.092-8.196 3.208-3.718 6.317-1.691 6.417.467-.017 5.746 6.617-5.44 10.291-5.819z" fill="#153B73"/></svg>