<svg height="24" viewBox="-34 0 512 512" width="24" xmlns="http://www.w3.org/2000/svg"><path d="M346.36 0H96.663C43.277 0 0 43.516 0 97.191v251.063c0 53.672 43.273 97.187 96.664 97.187h83.106L221.082 512l41.324-66.559h83.953c53.383 0 96.668-43.515 96.668-97.187V97.188C443.027 43.516 399.742 0 346.36 0zm0 0" fill="#020202"/><path d="M168.098 246.98h36.492v-36.027h33.836v36.027h36.488v-36.027h35.824V174.27h-35.824v-34.02h35.824v-36.688h-35.824V67.54h-36.488v36.023h-33.832V67.54h-36.492v36.023H132.27v36.688h35.832v34.02H132.27v36.683h35.828zm36.496-106.73h33.832v34.02h-33.832zm0 0M384.066 259.059c-3.277-2.168-6.382-3.243-9.257-3.579-13.485-1.484-21.754 7.547-28.317 17.844-7.246 11.364-49.066 61.137-124.836 63.043-75.77-1.906-117.586-51.68-124.836-63.043-6.562-10.297-14.543-19.312-28.316-17.844-2.875.336-5.977 1.41-9.258 3.579-5.898 3.902-8.144 10.527-7.95 15.148 0 6.402 3.118 12.344 3.118 12.344s48.172 91.219 162.543 91.219c1.582 0 3.145-.02 4.7-.047 1.554.027 3.116.047 4.702.047 114.371 0 162.543-91.22 162.543-91.22s2.692-3.898 3.153-12.35c.21-5.743-2.09-11.24-7.989-15.141zm0 0" fill="#fff"/><path d="M204.594 140.25h33.832v34.02h-33.832zm0 0" fill="#00a0e9"/></svg>