<svg width="24" height="24" fill="#fff" xmlns="http://www.w3.org/2000/svg" fill-rule="evenodd" clip-rule="evenodd"><path d="M24 23H0V9.725L2 8.27V1h20v7.272l2 1.453V23zM4 12.528V3h16v9.527L12 18l-8-5.472zm8.181-7.948a.44.44 0 0 1 .835-.278l2.587 6.493a.441.441 0 0 1-.835.279s-1.633-.547-3.57.096l1.273 1.979c.133.194.04.46-.18.533l-.865.288-.182.03a.579.579 0 0 1-.433-.195l-1.75-1.93c-.952.3-2.031-.047-2.391-.944a1.75 1.75 0 0 1-.125-.646c0-.64.358-1.292 1.133-1.673 3.882-1.906 4.503-4.032 4.503-4.032zm2.758.415a2.935 2.935 0 0 1 1.557 3.844l.67.284a3.664 3.664 0 0 0-1.944-4.8l-.283.672zm-.484 1.147a1.69 1.69 0 0 1 .898 2.212l.653.277a2.399 2.399 0 0 0-1.274-3.145l-.277.656z"/></svg>