<svg width="257" height="257" viewBox="0 0 257 257" fill="none" xmlns="http://www.w3.org/2000/svg">
<g style="mix-blend-mode:overlay">
<path d="M222.978 193.778C186.151 185.276 151.861 177.823 168.47 146.469C219.005 51.0359 181.867 0 128.505 0C74.094 0 37.8662 52.9955 88.5402 146.469C105.642 178.005 70.0675 185.458 34.0325 193.778C2.13104 201.145 0 216.726 0 243.711L0.0535439 257H112.314L119.853 224.875H137.147L144.686 257H256.946L257 243.711C257.011 216.726 254.88 201.145 222.978 193.778V193.778ZM134.834 214.167H122.369L112.624 192.75H144.686L134.834 214.167Z" fill="#A3A3A3"/>
</g>
</svg>
