<svg width="676" height="472" fill="none" xmlns="http://www.w3.org/2000/svg"><g clip-path="url(#clip0)"><path d="M517.523 420.825c42.089 0 76.209-7.638 76.209-17.059 0-9.421-34.12-17.058-76.209-17.058-42.089 0-76.21 7.637-76.21 17.058s34.121 17.059 76.21 17.059z" stroke="#444053" stroke-miterlimit="10"/><path d="M229.929 267.882c.224.632.477 1.252.759 1.855v.078s3.61 14.862 5.3 17.982c.491.903 1.046 1.884 1.594 2.843a7.062 7.062 0 0 0 0 2.133c.51 3.312 1.129 7.868.848 8.87-.28 1.002.338 3.497-.637 4.364-.976.867-1.977 2.374 1.014 4.371 0 0 .561 1.685.057 2.062-.057.042 0 .135.14.256-.822 2.715-2.028 7.107-1.275 7.42.414.178 1.537-.476 2.768-1.358.031.178.057.37.089.562.196 1.463.498 2.906.905 4.314.549 1.358 1.097 3.647.804 4.4-.293.753.804 2.431.548 3.092-.255.661.849 2.807.849 2.807s1.097 4.165 1.052 5.573c-.045 1.407 1.186 10.484 1.186 10.484s-1.275 4.684-.638 6.041c.638 1.358 1.053 6.042 0 7.776-1.052 1.734-2.372 5.565-1.945 6.596.428 1.03-.593 13.767 1.984 19.013.33 1.951.57 3.921.72 5.899 0 1.422 2.028 5.196 2.028 5.196s-1.224 5.686 1.78 6.646c.207.072.421.117.637.135.092.621.017 1.26-.217 1.834a7.676 7.676 0 0 0-1.071 2.644.784.784 0 0 0 .057.533c.338.419 1.276 6.041 1.276 6.041s1.352 6.319 8.794 4.777c0 0 5.032-.327 4.611-2.296a14.038 14.038 0 0 0-.548-1.905c-.178-.4-.335-.811-.472-1.23-.083-.469-1.142-1.784-1.225-2.672-.083-.889-.759-2.623-.637-3.184.121-.562-1.142-4.585-1.231-5.48a10.133 10.133 0 0 0-.479-1.82l.268-.142s.676-4.215.09-5.757c-.587-1.543-2.921-3.554-2.921-3.554s.338-10.349-.083-11.756c-.421-1.408.21-6.738.21-6.738s1.435-7.542 1.352-9.24a8.63 8.63 0 0 1 .421-3.092s.893-11.095 1.48-12.503c.586-1.407 1.275-15.167 1.275-15.167l.396 1.265a51.887 51.887 0 0 0 1.977 5.565c.325.569 1.275 2.388 2.091 3.909l1.206 2.275s.548 2.203.165 3.554c-.382 1.35 3.935 8.657 3.935 8.657a4.738 4.738 0 0 0-.421 1.969c.122.71-1.313 2.949-1.313 2.949s-.549 2.012-.211 2.715c.338.704-.548 4.869-.548 4.869s-1.442 9.176-1.78 10.256c-.338 1.081.173 8.473.173 8.473s-2.653 7.57-1.423 10.086c.052.931.058 2.352-.267 2.928-.44.768-.313 3.604-.268 4.385v.207s-1.441 2.132.376 2.999c1.818.867 7.997 1.493 7.997 1.493s5.874 1.876 8.705 2.388c2.832.512 8.756.327 9.177-1.592.15-.596.202-1.218.153-1.834a2.45 2.45 0 0 0-.369-1.08 2.116 2.116 0 0 0-.798-.74 44.61 44.61 0 0 0-5.331-1.968s-2.793-.711-3.048-2.062c-.256-1.35-4.229-5.103-4.229-5.103s-.044-.263-.127-.618h.127l-.191-.214c-.198-.71-.517-1.649-.906-1.471a1.174 1.174 0 0 1 .127-1.207.979.979 0 0 1 .307-.257c1.524-.931 2.455-3.881 2.028-7.065-.427-3.184-.504-2.623.383-4.45.55-1.38.769-2.896.637-4.399l2.341-9.724c.367-1.194.594-2.436.676-3.696.04-.99.27-1.96.676-2.843 0 0 1.059-6.745 1.99-8.287.931-1.543-.638-6.98-.638-6.98s-1.435-8.423-1.352-12.268c.083-3.845-3.724-17.179-3.724-17.179a4.877 4.877 0 0 1-.587-2.907c.076-.796-.37-2.09-.874-3.248l-.159-.363c.194-.278.429-.519.695-.711 1.046-.71 1.537-2.58 1.543-3.895l-14.419-37.876c0-.114 6.677-15.317 6.658-15.431-.395-2.495-4.171-9.112-4.171-9.112a.518.518 0 0 0-.159-.206c-.848-.434-3.718-2.246-3.718-2.246-2.251-3.099-4.362-3.739-5.74-3.718a3.53 3.53 0 0 0-1.275.221c-.147.05-.29.115-.428.191l-.063.619a14.072 14.072 0 0 1 .299-4.265 8.6 8.6 0 0 0 .09-.369h.637a9.373 9.373 0 0 0 3.937-.859 10.264 10.264 0 0 0 3.342-2.472 11.62 11.62 0 0 0 2.239-3.709c.52-1.389.79-2.878.795-4.382a12.876 12.876 0 0 0-.396-3.163l-.051-.164.319-.156c1.275-.526 2.876.369 3.909-.583.375-.414.643-.932.778-1.5a9.87 9.87 0 0 0 .568-2.381v-.426a.911.911 0 0 0 0-.128 1.37 1.37 0 0 0 0-.157v-.191c0-.064 0 0 0 0a2.931 2.931 0 0 0-.549-1.422c-.676-.881-1.804-1.095-2.659-1.741a7.037 7.037 0 0 1-1.703-2.225 8.158 8.158 0 0 0-1.651-2.267 2.314 2.314 0 0 0-1.187-.602 2.197 2.197 0 0 0-1.294.168 2.7 2.7 0 0 1-.816.426 1.568 1.568 0 0 1-.9-.27c-2.933-1.528-6.377-1.258-9.566-.803a11.426 11.426 0 0 0-3.769 1.009c-.6.276-1.139.694-1.58 1.225a5.132 5.132 0 0 0-.971 1.853c-.261 1.102-.063 2.296-.376 3.383-.217.711-.638 1.365-.906 2.083-.13.376-.211.771-.242 1.173v.113c-.108 1.614.459 3.313.734 4.976.376 2.267.184 4.733 1.058 6.88.087.263.199.516.332.753-.306.711-.638 1.465-.957 2.168-.472-.149-1.913-.504-1.964.903a8.384 8.384 0 0 1-.702 3.298 2.037 2.037 0 0 1-.21.163.433.433 0 0 0-.185.189.503.503 0 0 0-.051.273l-.166.143a.381.381 0 0 0-.204.078c-.089-.171-.382-.185-1.314 1.052a18.32 18.32 0 0 1-4.228 3.625s-6.262 4.868-6.6 7.107c-.338 2.239-2.43 12.019-1.359 15.268zm27.499-23.754v-.078l.077.042-.077.036zm17.015 159.212c-.169.08-.351.121-.535.121l.535-.121z" fill="url(#paint0_linear)"/><path d="M260.024 423.142c-7.353 1.535-8.692-4.748-8.692-4.748s-.919-5.587-1.276-6.006a.784.784 0 0 1-.057-.533 7.713 7.713 0 0 1 1.058-2.63c.46-.604.083-3.12.083-3.12l8.52-2.417c.365.897.645 1.833.836 2.793.089.882 1.339 4.891 1.212 5.445-.128.554.548 2.281.637 3.17.09.888 1.129 2.189 1.212 2.651.128.421.282.832.459 1.23.228.612.409 1.244.542 1.89.434 1.948-4.534 2.275-4.534 2.275z" fill="#444053"/><path opacity=".1" d="M260.024 423.142c-7.353 1.535-8.692-4.748-8.692-4.748s-.919-5.587-1.276-6.006a.784.784 0 0 1-.057-.533l1.766 5.686s1.467 3.404 6.894 2.886c3.093-.285 4.611-.924 5.351-1.422.227.612.409 1.245.542 1.891.44 1.919-4.528 2.246-4.528 2.246z" fill="#000"/><path opacity=".1" d="M254.297 414.293s1.843.049 1.964-1.628l-1.964 1.628z" fill="#000"/><path d="M286.26 359.258c-.918 1.535-1.964 8.238-1.964 8.238a7.713 7.713 0 0 0-.638 2.843 15.859 15.859 0 0 1-.637 3.681l-2.417 9.639a9.618 9.618 0 0 1-.638 4.371c-.874 1.819-.791 1.258-.376 4.428.414 3.17-.498 6.098-2.003 7.029-1.505.931.67 3.121.67 3.121s-9.611 2.885-11.62 1.115c-2.009-1.769 1.046-10.519 1.046-10.519s-.497-7.356-.166-8.43c.332-1.073 1.754-10.199 1.754-10.199s.88-4.144.542-4.84c-.338-.697.211-2.701.211-2.701s1.422-2.239 1.275-2.936a4.804 4.804 0 0 1 .421-1.954s-4.26-7.265-3.89-8.615c.37-1.35-.166-3.554-.166-3.554s-.536-1.03-1.186-2.26c-.791-1.514-1.748-3.319-2.073-3.888a53.157 53.157 0 0 1-1.945-5.53l-.395-1.265s-.638 13.689-1.276 15.083c-.637 1.393-1.46 12.438-1.46 12.438a8.538 8.538 0 0 0-.421 3.071c.083 1.72-1.339 9.24-1.339 9.24s-.638 5.309-.204 6.709c.433 1.4.083 11.685.083 11.685s2.295 2.005 2.882 3.554c.587 1.55-.083 5.729-.083 5.729s-6.683 3.724-9.655 2.743c-2.972-.98-1.754-6.61-1.754-6.61s-2.002-3.724-2.002-5.167a64.826 64.826 0 0 0-.715-5.871c-2.551-5.217-1.543-17.876-1.958-18.906-.414-1.031.874-4.841 1.914-6.561 1.039-1.72.637-6.397 0-7.733-.638-1.336.637-6.006.637-6.006s-1.211-9.034-1.167-10.427c.045-1.393-1.046-5.544-1.046-5.544s-1.084-2.132-.835-2.793c.249-.661-.835-2.332-.542-3.071.293-.739-.255-3.028-.797-4.378a30.702 30.702 0 0 1-.893-4.265c-.255-1.606-.44-3.02-.44-3.02l6.894-6.191 17.219-5.032 6.53-2.367 6.307 11.081s.638 1.158 1.231 2.494c.498 1.152.938 2.438.861 3.234a4.869 4.869 0 0 0 .587 2.886s3.756 13.27 3.673 17.059c-.083 3.788 1.339 12.203 1.339 12.203s1.544 5.424.625 6.959z" fill="#3F3D56"/><path opacity=".1" d="M247.575 366.195s7.354-3.49 9.522-1.023c2.168 2.466-9.522 1.023-9.522 1.023zM251.708 367.588s-7.455 4.698-4.904 5.452c2.551.753 4.904-5.452 4.904-5.452zM273.933 363.544s-3.188.227-1.964.931c1.224.703 1.964-.931 1.964-.931zM277.906 364.61c-.045.235-9.234 3.554-7.436 5.032 1.798 1.479 7.436-5.032 7.436-5.032zM248.659 393.105c1.378-.228 9.069-4.187 6.059-1.344a5.794 5.794 0 0 1-2.862 1.609 5.421 5.421 0 0 1-3.197-.265zM252.46 396.225s.67 2.893 3.221 2.516c2.551-.377-3.221-2.516-3.221-2.516zM250.33 402.096c.459-.142 5.931-2.935 6.059-1.628.127 1.308-5.223 3.554-5.638 2.886a2.691 2.691 0 0 1-.421-1.258zM268.047 398.741c.638-.043 6.932-2.282 8.188-.277l-8.188.277zM273.729 400.049s1.084-1.073 2.168-.512c1.084.562-2.168.512-2.168.512zM259.858 411.592c.068.396.238.762.489 1.052.252.291.574.493.927.583l-1.416-1.635z" fill="#000"/><path d="M291.732 415.97c-.414 1.912-6.269 2.097-9.062 1.585-2.793-.512-8.609-2.374-8.609-2.374s-6.097-.654-7.896-1.492c-1.798-.839-.376-2.978-.376-2.978v-.199c-.045-.782-.166-3.604.262-4.365.503-.888.21-3.774.21-3.774s8.648 1.862 8.814.981c.165-.881 1.505-2.132 2.13-2.424.625-.291 1.09 2.332 1.09 2.332s3.929 3.724 4.177 5.075c.249 1.35 3.004 2.047 3.004 2.047a43.449 43.449 0 0 1 5.268 1.954c.315.165.587.418.789.734.202.317.328.685.365 1.072a5.606 5.606 0 0 1-.166 1.826z" fill="#444053"/><path opacity=".1" d="M291.732 415.97c-.414 1.912-6.269 2.097-9.062 1.585-2.793-.512-8.609-2.374-8.609-2.374s-6.097-.654-7.896-1.492c-1.798-.839-.376-2.979-.376-2.979v-.199l8.744 2.133s4.304 2.047 7.059 2.047c2.411 0 7.8 1.101 10.306-.569a5.63 5.63 0 0 1-.166 1.848z" fill="#000"/><path opacity=".1" d="M279.909 408.614s-.415 3.07-2.086 4.101l2.086-4.101z" fill="#000"/><path d="M306.687 295.431c-2.487 1.052-8.226 1.166-10.777 1.166h-1.276l-1.639-3.725 1.639-3.106s1.505-.462 3.508-.867c2.952-.59 7.015-1.052 8.928.277 3.214 2.225 2.87 4.926-.383 6.255z" fill="#A1616A"/><path d="M268.697 250.859l.727-.931s3.731 6.581 4.12 9.062c.389 2.48.893 5.338.893 5.338s.944 3.227 1.562 4.655a16.85 16.85 0 0 1 1.225 3.419c.051.618-.224 1.983.944 2.843 1.167.86 1.447 3.227 1.447 3.227s4.235 4.592 6.467 4.72c2.232.128 8.628 1.364 8.412 2.601-.217 1.237 2.672 1.99 3.826 2.303 1.154.313-7.513 4.044-2.411 8.849 0 0-3.233.711-3.565 1.613-.331.903-3.73-.497-3.73-.497s-.727-1.926-3.234-2.047c-2.506-.121-3.788-1.365-3.788-1.55 0-.184-2.506-1.741-3.896-2.175-1.391-.433-3.234-.618-3.291-1.059-.058-.44-8.354-40.35-8.354-40.35l2.646-.021z" fill="#6C63FF"/><path opacity=".05" d="M268.697 251.015l.727-.931s3.731 6.582 4.12 9.069c.389 2.488.893 5.338.893 5.338s.944 3.227 1.562 4.656c.526 1.08.936 2.225 1.225 3.411.051.626-.224 1.991.944 2.843 1.167.853 1.447 3.227 1.447 3.227s4.235 4.599 6.467 4.72c2.232.121 8.628 1.364 8.412 2.608-.217 1.244 2.672 1.991 3.826 2.296 1.154.306-7.513 4.052-2.411 8.835 0 0-3.233.711-3.565 1.613-.331.903-3.73-.497-3.73-.497s-.727-1.926-3.234-2.047c-2.506-.121-3.788-1.365-3.788-1.557 0-.192-2.506-1.734-3.896-2.168-1.391-.433-3.234-.625-3.291-1.059-.058-.433-8.354-40.357-8.354-40.357h2.646z" fill="#000"/><path d="M353.943 419.751c42.091 0 76.21 7.641 76.21 17.059 0 9.418-34.119 17.058-76.21 17.058-42.09 0-76.209-7.633-76.209-17.058" stroke="#444053" stroke-miterlimit="10"/><path d="M338.282 68.204l-10.745-2.032-13.556 89.044 10.745 2.032 13.556-89.044z" fill="#444053"/><path d="M350.972 425.573l2.385 18.977 2.041-19.731-4.426.754z" fill="#D0D2D5"/><path d="M274.354 414.947v11.77l2.385 10.242h1.703l2.047-11.003 1.02-13.284-7.155 2.275z" fill="#3F3D56"/><path d="M269.501 369.031l5.102 1.137s-5.785 17.833-1.703 21.629h-6.46s-2.385-13.661 3.061-22.766z" fill="#D0D2D5"/><path opacity=".1" d="M269.501 369.031l5.102 1.137s-5.785 17.833-1.703 21.629h-6.46s-2.385-13.661 3.061-22.766z" fill="#000"/><path d="M303.639 154.613l-16.345 115.365s-24.171 122.963-14.981 147.25h11.581l34.732-236.046-14.987-26.569zM345.092 140.284l12.531 115.955s9.126 147.719-.867 171.608h-9.872l-17.64-261.627 15.848-25.936z" fill="#D0D2D5"/><path d="M302.115 112.465c.841-3.15 2.591-5.902 4.979-7.83 2.389-1.927 5.281-2.923 8.228-2.832 10.083.285 25.669 2.332 33.8 11.614 12.602 14.422-8.514 62.996-8.514 62.996s-19.769 40.606-37.792-11.003c-.025.043-7.5-27.592-.701-52.945z" fill="#444053"/><path opacity=".1" d="M302.115 112.465c.841-3.15 2.591-5.902 4.979-7.83 2.389-1.927 5.281-2.923 8.228-2.832 10.083.285 25.669 2.332 33.8 11.614 12.602 14.422-8.514 62.996-8.514 62.996s-19.769 40.606-37.792-11.003c-.025.043-7.5-27.592-.701-52.945z" fill="#000"/><path d="M309.047 122.33c.606-2.237 1.855-4.191 3.554-5.56 1.7-1.369 3.756-2.077 5.852-2.016 7.175.206 18.272 1.663 24.043 8.273 8.973 10.263-6.058 44.849-6.058 44.849s-14.031 28.907-26.913-7.818c0-.021-5.325-19.674-.478-37.728z" fill="#444053"/><path d="M343.95 417.861c.108 1.834.363 3.76 1.403 5.196 1.722 2.374 4.853 2.558 7.532 3.305a31.184 31.184 0 0 1 5.956 2.615l5.797 3.057a13.742 13.742 0 0 0-4.349 1.009c-.746.305-1.563.81-1.671 1.677-.014.362.07.72.242 1.027.172.307.423.549.721.693a4.124 4.124 0 0 0 1.913.377 57.815 57.815 0 0 0 10.331-.604l.408-.064c1.761.971 3.512 1.964 5.255 2.978.727.426 1.601 0 2.213-.597a12.746 12.746 0 0 0 1.965-2.502c.102.199.204.391.287.583.561 1.201 1.09 2.772.287 3.795-.638.796-1.844.932-2.207 1.898-.099.35-.095.725.012 1.072.107.347.31.646.581.854a3.671 3.671 0 0 0 1.856.711c1.577.242 3.178.227 4.751-.043.853-.066 1.661-.449 2.296-1.087a5.069 5.069 0 0 0 .816-2.843l1.091-13.81a4.608 4.608 0 0 0-.128-1.962c-.433-1.173-1.69-1.663-2.825-1.869h-.121c.944 0 1.913-.05 2.933-.05a6.344 6.344 0 0 0 2.628-.37c1.62-.71 2.493-2.608 3.189-4.357 1.275-3.07 2.742-6.397 2.551-9.808l-.498-.249c-.045-3.632-1.409-7.022-1.913-10.569a6.39 6.39 0 0 0 .848-3.199 12.955 12.955 0 0 0-.721-3.639c-2.021-6.695-4.043-13.412-6.747-19.809a70.626 70.626 0 0 0-6.377-12.083 99.872 99.872 0 0 0-2.028-2.843c-.51-.654-1.652-1.578-1.862-2.41-.211-.831.236-1.641 0-2.494a4.597 4.597 0 0 0-.23-.647c1.492-2.204 1.071-5.388.548-8.131l-.637-3.419a10.007 10.007 0 0 0-.791-2.708 7.716 7.716 0 0 0-1.524-1.926c-3.138-3.156-7.015-5.253-10.542-7.869-3.731-2.764-7.066-6.126-10.408-9.446-1.02-1.009-2.302-2.096-3.622-1.67-1.32.426-1.869 2.019-1.913 3.469a7.872 7.872 0 0 0 .523 2.926 7.202 7.202 0 0 0 1.549 2.433c2.309 2.352 5.797 2.544 8.546 4.208a20.13 20.13 0 0 1 2.685 2.082l7.984 6.987c.606.404 1.05 1.049 1.244 1.805.031.456-.034.914-.192 1.337-.299 1.023-.809 2.31-1.186 3.61l-.637-.512a24.686 24.686 0 0 0-4.229-2.843 19.248 19.248 0 0 0-6.192-1.656c-4.713-.59-8.928.221-11.811 4.606a9.34 9.34 0 0 1-2.238 2.566 8.22 8.22 0 0 0-1.818 1.286c-1.479 1.827-.638 4.855.753 6.397 1.176 1.219 2.626 2.061 4.196 2.438.865 2.152 2.411 3.875 4.341 4.839a7.807 7.807 0 0 0 6.131.393c.098.915.118 1.838.057 2.757-.031.473.034.948.19 1.39.156.441.398.838.709 1.162.336.254.706.446 1.097.569a16.285 16.285 0 0 1 3.973 2.31 23.056 23.056 0 0 0-3.52 5.863 10.52 10.52 0 0 0-.666 4.524 10.286 10.286 0 0 0 1.304 4.347l.038.057a3.058 3.058 0 0 1-.58 1.194c-.389.338-.88.496-1.371.44a1.854 1.854 0 0 1-1.263-.739 11.402 11.402 0 0 1-1.378-2.367 9.57 9.57 0 0 0-2.452-2.919 8.458 8.458 0 0 0-3.287-1.601 4.162 4.162 0 0 0-2.647.121 2.36 2.36 0 0 0-1.059.858 2.778 2.778 0 0 0-.478 1.359c0 1.074.701 1.962 1.39 2.723a41.955 41.955 0 0 0 7.015 6.468c.695.479 1.412.915 2.15 1.307-1.276-.298-2.534-.59-3.776-.874a15.412 15.412 0 0 0-5.325-.519 5.525 5.525 0 0 0-2.53.881 6.263 6.263 0 0 0-1.934 2.019 7.058 7.058 0 0 0-.415 4.833 17.113 17.113 0 0 0 1.958 4.478 31.552 31.552 0 0 0 4.892 6.824 75.558 75.558 0 0 0-4.745 1.755c-1.556.64-3.189 1.422-3.903 3.014a7.647 7.647 0 0 0-.389 3.625zm23.475-24.166h.057c.339-.171.629-.445.836-.789a13.631 13.631 0 0 0 2.015-4.862 4.46 4.46 0 0 0 1.084-.306 2.73 2.73 0 0 0-.557.895c-.13.337-.196.7-.195 1.067l3.596 1.962c.26.109.483.305.638.561.099.266.124.558.07.839-.102.917-.261 1.834-.363 2.744-1.078-.356-2.137-.64-3.087-.924-1.352-.413-2.723-.796-4.094-1.18v-.007z" fill="url(#paint1_linear)"/><path d="M368.095 355.939a6.208 6.208 0 0 0 2.767.132 6.476 6.476 0 0 0 2.59-1.092 3.137 3.137 0 0 1 1.039-.54c.331-.032.663.022.971.159.308.137.583.353.802.63 1.531 1.699 1.709 4.499.919 6.738-.791 2.239-2.379 4.002-4.044 5.53a36.97 36.97 0 0 1-4.253 3.369 8.872 8.872 0 0 0-1.756-2.851 7.855 7.855 0 0 0-2.606-1.876c-1.748-.753-3.023-2.772-4.025-4.535-.746-1.307-1.409-1.251-.739-2.601a19.317 19.317 0 0 1 2.653-3.554 11.552 11.552 0 0 0 1.428-2.132c.447-.896.345-1.479 1.033-.768.453.469.638 1.486 1.161 2.033a5.018 5.018 0 0 0 2.06 1.358zM373.573 342.079c.149-.418.212-.867.185-1.315-.191-.744-.626-1.381-1.218-1.784l-7.8-6.895a19.19 19.19 0 0 0-2.615-2.054c-2.691-1.642-6.09-1.834-8.348-4.151a7.191 7.191 0 0 1-1.513-2.41 7.839 7.839 0 0 1-.515-2.885c0-1.422.638-3.028 1.844-3.426 1.205-.398 2.55.654 3.545 1.656 3.259 3.27 6.512 6.589 10.153 9.318 3.444 2.588 7.238 4.649 10.306 7.769a7.592 7.592 0 0 1 1.422 1.855c.375.846.635 1.749.772 2.68l.637 3.369c.536 2.843.97 6.148-.746 8.33-.249.35-.565.633-.925.831a2.488 2.488 0 0 1-1.154.313 3.808 3.808 0 0 1-1.6-.611c-1.276-.711-3.585-1.421-3.974-3.198-.497-2.225.938-5.331 1.544-7.392zM361.131 386.502a11.617 11.617 0 0 1-1.346-2.332 9.38 9.38 0 0 0-2.385-2.877 8.277 8.277 0 0 0-3.214-1.586 4.066 4.066 0 0 0-2.551.113 2.341 2.341 0 0 0-1.037.855 2.75 2.75 0 0 0-.462 1.342c0 1.052.683 1.933 1.352 2.679a40.91 40.91 0 0 0 6.862 6.397c2.501 1.828 5.369 2.937 8.348 3.227.3.041.605.01.893-.092.33-.171.613-.439.816-.775 1.582-2.26 2.13-5.196 2.551-8.017-.153 1.016-5.287-1.358-5.867-1.052-.854.447-.772 1.784-1.39 2.423a1.714 1.714 0 0 1-1.341.434 1.8 1.8 0 0 1-1.229-.739zM398.534 408.834c.029.355-.033.713-.179 1.031-.35.611-1.141.618-1.785.511a29.759 29.759 0 0 1-4.394-1.18l-13.093-4.214a1.148 1.148 0 0 1-.561-.306 1.367 1.367 0 0 1-.262-.64 19.115 19.115 0 0 1-.287-6.397c.016-.307.107-.605.262-.86a1.454 1.454 0 0 1 1.084-.454 49.758 49.758 0 0 1 6.173-.313c1.338.063 2.678.029 4.012-.1 1.722-.227 3.705-1.329 5.433-1.158 1.499.142 1.435 1.421 1.588 2.843.427 3.774 1.977 7.385 2.009 11.237z" fill="#FABDBD"/><path d="M356.73 391.513a14.701 14.701 0 0 0-5.203-.519 5.374 5.374 0 0 0-2.471.865 6.096 6.096 0 0 0-1.885 1.978 6.971 6.971 0 0 0-.408 4.776 17.387 17.387 0 0 0 1.913 4.414c1.471 2.836 3.362 5.374 5.593 7.506 1.116.988 2.347 1.805 3.418 2.843 2.283 2.225 3.699 5.331 5.057 8.351 1.276 2.844 2.551 5.743 3.1 8.871.004.12.031.239.078.348a.885.885 0 0 0 .196.284c.177.096.38.111.567.043l6.282-1.294a.903.903 0 0 0 .511-.131c.156-.095.286-.235.377-.406a1.201 1.201 0 0 0-.008-1.126c-1.363-6.528-3.913-12.675-7.493-18.06 1.663 1.752 3.678 3.036 5.877 3.745 2.198.71 4.517.824 6.763.334a4.702 4.702 0 0 0 2.398-1.158c1.403-1.422 1.339-3.845 1.026-5.914a47.524 47.524 0 0 0-1.16-5.451c-1.18-4.265-6.269-5.416-9.719-6.454a232.395 232.395 0 0 0-14.809-3.845z" fill="#3F3D56"/><path opacity=".1" d="M361.379 406.624a6.9 6.9 0 0 1 2.385 1.762c-1.128-1.421-4.355-2.132-5.937-2.793-1.958-.81-4.094-1.642-5.74-3.085a64.716 64.716 0 0 1 9.292 4.116z" fill="#000"/><path d="M381.723 436.582c.542 1.195 1.059 2.737.281 3.753-.6.782-1.799.917-2.156 1.87-.098.345-.094.715.01 1.058.105.343.305.639.571.846a3.495 3.495 0 0 0 1.811.711c1.541.235 3.105.221 4.643-.042.833-.068 1.621-.446 2.238-1.074a5.046 5.046 0 0 0 .797-2.843l1.065-13.632a4.74 4.74 0 0 0-.121-1.941c-.427-1.158-1.652-1.634-2.761-1.841a13.339 13.339 0 0 0-3.757-.17 3.711 3.711 0 0 0-2.34.895 5.333 5.333 0 0 0-1.103 2.844c-.287 1.62-1.091 3.866-.919 5.508.109 1.358 1.206 2.864 1.741 4.058zM367.642 432.176a13.464 13.464 0 0 0-7.085.888c-.727.299-1.525.803-1.633 1.656-.015.357.068.709.236 1.012.169.303.415.543.708.687a4.058 4.058 0 0 0 1.875.377c3.372.1 6.745-.1 10.089-.597a5.042 5.042 0 0 0 2.455-.86 2.12 2.12 0 0 0 .786-1.114c.14-.46.135-.96-.014-1.417-.402-.938-1.499-1.229-2.028-2.075-.383-.611-.479-1.514-1.078-1.834a1.672 1.672 0 0 0-1.371.114c-.638.249-2.169.497-2.609 1.087a9.011 9.011 0 0 0-.331 2.076z" fill="#6C63FF"/><path d="M358.612 363.395c4.624 0 8.373-4.179 8.373-9.333s-3.749-9.332-8.373-9.332c-4.625 0-8.374 4.178-8.374 9.332 0 5.154 3.749 9.333 8.374 9.333z" fill="#FABDBD"/><path d="M378.471 349.954c-1.346-1.102-3.042-1.478-4.681-1.82a2.217 2.217 0 0 0-1.684.093 2.727 2.727 0 0 0-.81 1.109c-.505.913-.88 1.908-1.11 2.949a3.811 3.811 0 0 0-.002 1.588 3.6 3.6 0 0 0 .64 1.419c.498.568 1.212.853 1.722 1.421.331.412.571.903.702 1.436.131.533.148 1.093.05 1.635a9.769 9.769 0 0 1-1.116 3.035 52.003 52.003 0 0 1-4.196 6.88c-1.626 2.253-3.45 4.421-4.407 7.108a10.497 10.497 0 0 0-.642 4.465c.111 1.524.55 2.997 1.28 4.291 1.55 2.517 4.637 3.867 7.194 2.78-.233.25-.418.55-.543.882-.125.333-.188.69-.184 1.051l3.507 1.94c.26.106.482.3.638.555.094.261.116.548.064.824a28.784 28.784 0 0 0-.427 4.784c.095 1.599.752 3.283 2.053 3.98 1.193.64 2.608.298 3.909 0a44.017 44.017 0 0 1 9.228-1.081c1.544 0 3.138.043 4.56-.625.953-.468 1.765-1.233 2.339-2.202.573-.97.884-2.103.895-3.264a12.83 12.83 0 0 0-.708-3.596c-1.971-6.61-3.948-13.235-6.588-19.553a70.933 70.933 0 0 0-6.256-11.941c-.638-.946-1.276-1.877-1.984-2.78-.497-.646-1.613-1.556-1.817-2.381-.204-.824.229-1.62 0-2.459-.287-1.013-.857-1.897-1.626-2.523z" fill="#6C63FF"/><path d="M399.019 409.026c-3.674-1.891-7.347-3.781-11.167-5.253-2.813-1.08-5.95-1.926-8.712-.71-.829.369-1.581.902-2.378 1.336-2.673 1.421-5.74 1.663-8.693 2.026a74.688 74.688 0 0 0-19.228 5.096c-1.485.611-3.086 1.421-3.826 2.971a7.518 7.518 0 0 0-.408 3.554c.108 1.812.357 3.717 1.371 5.131 1.684 2.346 4.738 2.524 7.353 3.263a30.362 30.362 0 0 1 5.823 2.587c6.109 3.248 12.225 6.496 18.22 10.015.701.419 1.556 0 2.155-.59 1.806-1.869 3.109-4.261 3.763-6.909.65-2.635.972-5.356.957-8.088 2.346 0 4.253-.114 6.6-.114a6.178 6.178 0 0 0 2.551-.363c1.575-.71 2.43-2.58 3.138-4.3 1.262-3.035 2.685-6.326 2.481-9.652z" fill="#3F3D56"/><path opacity=".1" d="M356.367 418.742c1.651-.895 3.565-.917 5.408-.903a16.149 16.149 0 0 1 3.354.285 24.776 24.776 0 0 1 4.904 2.054c3.912 1.829 8.118 2.748 12.36 2.701" fill="#000"/><path d="M346.839 355.384c1.262 1.298 2.827 2.172 4.515 2.523 1.658.427 3.367.59 5.038 1.003 2.054.504 4.299 1.712 4.764 4.001.108.917.129 1.843.064 2.765-.03.461.031.924.18 1.355.149.431.381.82.681 1.14.329.248.69.437 1.071.561 3.346 1.426 6.229 3.939 8.276 7.214 2.047 3.276 3.163 7.161 3.204 11.153a8.561 8.561 0 0 0 2.632-2.742 9.69 9.69 0 0 0 1.309-3.741c0 2.474 1.913 4.976.829 7.186a10.869 10.869 0 0 0 2.964-3.306 12.173 12.173 0 0 0 1.52-4.355c.231-1.554.17-3.144-.179-4.67a11.965 11.965 0 0 0-1.85-4.194c-.842-1.194-1.913-2.189-2.793-3.334a16.003 16.003 0 0 1-2.756-5.515 17.137 17.137 0 0 1-.548-6.283c.185-1.799.638-3.618.3-5.388-.491-2.452-2.423-4.158-4.26-5.615a24.119 24.119 0 0 0-4.133-2.8 18.605 18.605 0 0 0-6.052-1.642c-4.598-.576-8.686.22-11.536 4.549a9.025 9.025 0 0 1-2.181 2.53 8.206 8.206 0 0 0-1.78 1.272c-1.46 1.806-.631 4.791.721 6.333z" fill="#3F3D56"/><path d="M260.834 251.321c-.261-.121-18.437-8.487-15.943-10.15 1.486-.988 3.316-5.167 4.566-8.444.874-2.282 1.467-4.13 1.467-4.13s14.591-2.885 9.368 7.108a19.76 19.76 0 0 0-1.843 4.911c-1.505 6.753 2.238 10.577 2.385 10.705z" fill="#A1616A"/><path opacity=".1" d="M260.273 235.676a19.753 19.753 0 0 0-1.843 4.912c-1.851-.147-3.63-.854-5.147-2.043-1.517-1.19-2.714-2.818-3.463-4.709a10.586 10.586 0 0 1-.382-1.109c.873-2.282 1.466-4.13 1.466-4.13s14.592-2.885 9.369 7.079z" fill="#000"/><path d="M269.341 228.882c-.01 2.6-.82 5.117-2.294 7.133-1.474 2.015-3.523 3.407-5.805 3.943-2.283.536-4.662.184-6.74-.997-2.078-1.181-3.731-3.121-4.682-5.495a12.321 12.321 0 0 1-.867-4.584c.013-2.731.906-5.365 2.518-7.421 1.611-2.057 3.832-3.398 6.258-3.781 2.425-.382 4.893.222 6.953 1.7 2.059 1.479 3.573 3.734 4.264 6.353.262 1.024.395 2.084.395 3.149z" fill="#A1616A"/><path opacity=".1" d="M279.175 316.91a7.202 7.202 0 0 0-1.479 3.142s-5.013 3.817-4.681 1.421c.331-2.395-2.615-12.225-2.615-12.225l.331 13.32s-16.039-.839-17.218-2.132c-1.18-1.294-7.985-3.831-7.985-3.831s-2.098 1.876-4.03 3.298c-.255-1.607-.44-3.021-.44-3.021l6.894-6.191 17.218-5.032 6.467-2.317 6.307 11.081s.651 1.151 1.231 2.487z" fill="#000"/><path d="M279.698 315.858c-1.333.931-1.836 3.448-1.836 3.448s-5.013 3.816-4.681 1.421c.331-2.395-2.59-12.197-2.59-12.197l.338 13.32s-16.045-.839-17.219-2.132c-1.173-1.294-8.022-3.817-8.022-3.817s-5.931 5.309-7.015 4.84c-1.085-.469 1.913-9.496 1.913-9.496l3.086-52.895s-.835-15.736.421-16.298c.194-.085.371-.211.523-.369.829-.825 1.078-2.502 1.148-3.917.083-1.67 2.086-.839 2.086-.839l-1.167 1.678 10.356 7.015.09.064c.414-.237.84-.448 1.275-.632.919-.391 2.137-.761 2.934-.391.445.254.823.634 1.097 1.101a14.333 14.333 0 0 1 1.409 3.185l3.763 7.072s1.913 9.41 1.913 9.78c0 .369.587 8.941 1.275 9.872.689.932 1.34 5.587 1.091 6.987-.249 1.401.414 6.61.414 6.61 2.762 2.517 4.178 11.081 4.178 11.081s4.349 9.596 4.681 10.712c.331 1.116-.122 3.866-1.461 4.797z" fill="#444053"/><path opacity=".1" d="M257.052 245.954c-1.02 1.678-3.954 4.03-3.954 4.03l-8.469-7.967c.829-.825 1.078-2.509 1.148-3.917.083-1.677 2.085-.838 2.085-.838l-.242.348c-.116.167-.198.36-.243.565a1.674 1.674 0 0 0 .199 1.206c.107.175.246.322.408.432l9.068 6.141z" fill="#000"/><path d="M257.052 245.578c-1.02 1.677-3.954 4.037-3.954 4.037l-8.469-7.975c.829-.825 1.078-2.502 1.148-3.916.083-1.671 2.085-.839 2.085-.839l-.242.348c-.116.168-.198.36-.243.565a1.674 1.674 0 0 0 .199 1.207c.107.174.246.321.408.432l9.068 6.141z" fill="#444053"/><path opacity=".1" d="M260.968 246.836c-1.097 1.457-2.647 3.113-2.551 2.281.096-.831-.925-2.658-1.556-3.475a4.2 4.2 0 0 1 3.035.092c.437.259.806.638 1.072 1.102z" fill="#000"/><path d="M261.134 246.274c-1.097 1.464-2.647 3.113-2.551 2.289.095-.825-.823-2.175-1.461-2.992.919-.391 2.137-.761 2.934-.391.439.252.811.63 1.078 1.094z" fill="#444053"/><path opacity=".1" d="M244.636 242.102s.108-1.116-1.34.81a18.033 18.033 0 0 1-4.145 3.568s-6.18 4.848-6.518 7.108c-.338 2.26-2.34 11.92-1.275 15.146 1.065 3.227 9.139 18.694 9.139 18.694s-2.118 2.793-1.62 6.084c.497 3.291 1.116 7.818.835 8.813-.28.995.338 3.476-.638 4.343-.975.867-1.945 2.36 1.008 4.35 0 0 .555 1.678.051 2.047-.504.37 7.411 4.222 10.529 2.175 3.119-2.047 8.75-18.437 8.858-22.105.109-3.667-1.728-15.765-2.729-18.622-1.001-2.857-4.012-13.974-5.293-16.454-1.282-2.481-6.862-15.957-6.862-15.957z" fill="#000"/><path d="M244.298 242.102s.114-1.116-1.333.81a18.043 18.043 0 0 1-4.177 3.597s-6.186 4.847-6.518 7.107c-.332 2.261-2.341 11.92-1.276 15.147 1.065 3.227 9.133 18.693 9.133 18.693s-2.117 2.793-1.614 6.084c.504 3.291 1.116 7.819.836 8.814-.281.995.331 3.475-.638 4.343-.969.867-1.951 2.359 1.001 4.35 0 0 .561 1.677.058 2.047-.504.369 7.41 4.222 10.529 2.174 3.118-2.047 8.743-18.437 8.858-22.104.115-3.668-1.728-15.765-2.73-18.623-1.001-2.857-4.011-13.973-5.293-16.454-1.282-2.48-6.836-15.985-6.836-15.985z" fill="#6C63FF"/><path opacity=".1" d="M242.072 252.657s4.789 5.899 4.623 9.808c0 0 .058-6.332-4.623-9.808zM258.238 244.213s3.106-2.132 7.015 3.291c0 0 2.838 1.798 3.674 2.239.835.44 1.785 11.976 1.785 11.976s1.837 4.975 1.333 7.819c-.504 2.843 1.454 12.665 1.454 12.665s3.227 17.635 3.119 18.125c-.109.491-3.291-5.523-3.234-8.529.058-3.007-2.672-12.296-3.061-12.851-.389-.554-3.067-16.518-3.067-16.518s-2.168-6.767-3.565-8.998c-1.397-2.232-3.119-6.461-3.827-7.208a7.321 7.321 0 0 0-1.721-1.236l.095-.775z" fill="#000"/><path d="M258.2 244.213s3.482-2.132 7.379 3.291c0 0 2.844 1.798 3.679 2.239.836.44 1.78 11.976 1.78 11.976s1.836 4.975 1.339 7.819c-.498 2.843 1.447 12.665 1.447 12.665s3.234 17.635 3.119 18.125c-.115.491-3.284-5.523-3.233-8.529.051-3.007-2.672-12.296-3.061-12.851-.389-.554-3.062-16.518-3.062-16.518s-2.174-6.71-3.564-8.963c-1.391-2.253-3.125-6.461-3.827-7.207a6.773 6.773 0 0 0-2.06-1.237l.064-.81z" fill="#6C63FF"/><path d="M273.493 283.014s6.626-4.841 9.828-2.452c3.201 2.388 8.443 5.778 3.29 8.23-5.153 2.452-12.282 1.983-12.282 1.983l-.836-7.761z" fill="#A1616A"/><path opacity=".1" d="M268.882 329.733c-.988 2.366-1.805 14.215-2.359 17.996-.791-1.514-1.748-3.319-2.073-3.888a53.222 53.222 0 0 1-1.945-5.529c.638-1.706 2.366-6.596 2.366-8.388 0-2.189 3.189-4.939 3.189-4.939.57.592.956 1.371 1.104 2.224a4.539 4.539 0 0 1-.282 2.524zM268.946 225.733c-.16.092-.326.168-.498.227-.784.235-1.549-.355-2.244-.824-.695-.469-1.658-.818-2.264-.206-.785.796-.217 2.495-1.027 3.262-.51.491-1.32.32-1.913.711-.593.391-.74 1.279-.887 2.033-.146.753-.427 1.62-1.097 1.841-.669.22-1.275-.263-1.913-.242-.134 0-.293 0-.382-.085a.491.491 0 0 1-.064-.334 8.08 8.08 0 0 0-.217-2.694 2.644 2.644 0 0 0-.633-1.144 2.254 2.254 0 0 0-1.063-.633c-1.174-.199-2.162.945-2.851 2.026a33.856 33.856 0 0 0-1.971 3.553c-.032.064-.063.15-.102.249a12.321 12.321 0 0 1-.867-4.584c.013-2.73.906-5.364 2.518-7.421 1.611-2.057 3.832-3.398 6.258-3.78 2.425-.382 4.893.221 6.953 1.699 2.059 1.479 3.573 3.734 4.264 6.353v-.007z" fill="#000"/><path d="M251.906 229.493c.688-1.08 1.677-2.225 2.85-2.026.398.103.764.321 1.062.632.297.31.516.703.635 1.138a7.95 7.95 0 0 1 .21 2.694.55.55 0 0 0 .07.341c.09.114.249.093.383.085.638 0 1.307.448 1.913.242.606-.206.957-1.087 1.097-1.841.14-.753.3-1.62.887-2.033.586-.412 1.383-.234 1.913-.71.81-.768.242-2.474 1.027-3.263.605-.611 1.568-.263 2.263.206.696.469 1.461 1.059 2.245.825.26-.103.513-.224.759-.363 1.244-.526 2.851.37 3.865-.575.37-.414.636-.929.772-1.493.281-.757.469-1.554.561-2.367a3.458 3.458 0 0 0-.561-2.317c-.638-.867-1.786-1.087-2.634-1.727a7.076 7.076 0 0 1-1.678-2.211 8.054 8.054 0 0 0-1.632-2.26 2.29 2.29 0 0 0-1.174-.595 2.17 2.17 0 0 0-1.281.169 2.436 2.436 0 0 1-.804.419 1.484 1.484 0 0 1-.886-.27c-2.896-1.521-6.269-1.251-9.445-.796a11.14 11.14 0 0 0-3.725 1.002 4.492 4.492 0 0 0-1.556 1.226 5.126 5.126 0 0 0-.956 1.837c-.255 1.095-.058 2.282-.37 3.362-.211.711-.638 1.358-.893 2.076-.676 1.962.134 4.122.478 6.191.377 2.26.185 4.705 1.046 6.844.172.42.357 1.152.785.875.312-.207.637-1.422.797-1.77a34.957 34.957 0 0 1 1.977-3.547z" fill="#3F3D56"/><path opacity=".1" d="M233.552 265.884l-1.505 4.762s3.565 14.777 5.235 17.883c1.671 3.106 4.12 7.108 4.12 7.108 2.798 1.4 5.908 1.831 8.929 1.237 4.789-1.052 18.768-3.845 18.768-3.845.33.066.671.032.985-.099.315-.132.591-.356.801-.648.638-.995 3.788-1.492 3.788-1.492s3.673-5.957-.835-8.444c0 0-.555 1.371-2.953.433-2.398-.938-3.119.747-3.119.747s-3.903.874-6.071.561c-2.168-.313-7.576-.433-8.138-.931a.69.69 0 0 0-.238-.157.644.644 0 0 0-.542.035.713.713 0 0 0-.221.186 5.941 5.941 0 0 1-1.779-1.123c-.446-.554-1.059.625-1.059.625s-.784-.497-.561-1.116c.223-.618-.721-2.985-.721-2.985a6.679 6.679 0 0 1-.165-2.793c.274-1.244-1.397-5.686-1.397-5.686a8.948 8.948 0 0 1 .223-2.239c.281-1.116-2.117-3.355-2.117-3.355s-2.341-12.659-7.296-8.529c-4.955 4.129-4.132 9.865-4.132 9.865z" fill="#000"/><path d="M233.214 265.884l-1.506 4.762s3.565 14.777 5.236 17.883c1.671 3.106 4.126 7.108 4.126 7.108 2.798 1.402 5.909 1.833 8.929 1.237 4.796-1.052 18.775-3.845 18.775-3.845.33.066.67.032.985-.099.314-.132.591-.355.8-.648.638-.995 3.789-1.492 3.789-1.492s3.673-5.957-.836-8.444c0 0-.561 1.372-2.953.433-2.391-.938-3.125.747-3.125.747s-3.896.874-6.071.561c-2.174-.313-7.576-.433-8.131-.931a.69.69 0 0 0-.238-.157.644.644 0 0 0-.542.035.713.713 0 0 0-.221.186 5.954 5.954 0 0 1-1.786-1.123c-.446-.554-1.058.625-1.058.625s-.778-.497-.555-1.115c.223-.619-.727-2.986-.727-2.986a6.798 6.798 0 0 1-.166-2.793c.28-1.244-1.39-5.686-1.39-5.686a8.581 8.581 0 0 1 .223-2.239c.274-1.116-2.117-3.355-2.117-3.355s-2.341-12.659-7.296-8.529c-4.955 4.129-4.145 9.865-4.145 9.865z" fill="#6C63FF"/><path opacity=".1" d="M246.976 280.284s-5.459 1.244-3.622 2.296c1.836 1.052 3.622-2.296 3.622-2.296z" fill="#000"/><g opacity=".1" fill="#000"><path opacity=".1" d="M256.44 228.185a2.622 2.622 0 0 0-.633-1.142 2.236 2.236 0 0 0-1.063-.628c-1.174-.199-2.162.946-2.851 2.019a35.174 35.174 0 0 0-1.977 3.554c-.179.369-.485 1.564-.797 1.77-.428.277-.638-.462-.785-.882-.861-2.132-.637-4.584-1.046-6.844a43.867 43.867 0 0 1-.72-3.988c-.128 1.621.446 3.327.72 4.976.377 2.26.185 4.705 1.046 6.844.172.42.357 1.152.785.875.312-.207.637-1.422.797-1.763a34.387 34.387 0 0 1 1.977-3.554c.689-1.08 1.677-2.225 2.851-2.019.398.101.765.317 1.063.628.299.312.517.706.633 1.142.137.459.213.938.223 1.422a7.107 7.107 0 0 0-.223-2.41zM273.844 222.314a3.39 3.39 0 0 1-.772 1.486c-1.014.945-2.621.057-3.865.583-.255.106-.491.277-.758.362-.785.228-1.55-.355-2.245-.824-.695-.47-1.658-.825-2.264-.214-.785.796-.217 2.495-1.027 3.263-.51.49-1.32.32-1.913.711-.593.39-.74 1.272-.887 2.025-.146.754-.427 1.621-1.097 1.841-.669.22-1.275-.263-1.913-.234-.134 0-.293 0-.382-.086a.204.204 0 0 1-.045-.092v.746a.53.53 0 0 0 .07.334c.089.114.249.093.383.093.637 0 1.307.44 1.913.234.606-.206.957-1.08 1.097-1.841.14-.76.3-1.613.886-2.025.587-.413 1.384-.235 1.913-.711.81-.768.243-2.467 1.027-3.263.606-.611 1.569-.263 2.264.207.695.469 1.461 1.059 2.245.824.258-.104.512-.222.759-.355 1.244-.526 2.851.362 3.865-.583.369-.411.635-.924.771-1.486.281-.76.469-1.558.561-2.374a3.98 3.98 0 0 0 0-.831c-.122.758-.319 1.5-.586 2.21z"/></g><path d="M162.623 407.583c14.412 0 26.096-2.504 26.096-5.594 0-3.089-11.684-5.593-26.096-5.593-14.413 0-26.097 2.504-26.097 5.593 0 3.09 11.684 5.594 26.097 5.594z" fill="#6C63FF"/><path d="M162.189 404.051c1.676 0 3.036-1.986 3.036-4.436 0-2.449-1.36-4.435-3.036-4.435-1.677 0-3.036 1.986-3.036 4.435 0 2.45 1.359 4.436 3.036 4.436z" fill="#3F3D56"/><path d="M162.189 398.634c1.676 0 3.036-1.985 3.036-4.435 0-2.449-1.36-4.435-3.036-4.435-1.677 0-3.036 1.986-3.036 4.435 0 2.45 1.359 4.435 3.036 4.435z" fill="#3F3D56"/><path d="M162.189 393.218c1.676 0 3.036-1.985 3.036-4.435 0-2.449-1.36-4.435-3.036-4.435-1.677 0-3.036 1.986-3.036 4.435 0 2.45 1.359 4.435 3.036 4.435z" fill="#3F3D56"/><path d="M162.189 387.795c1.676 0 3.036-1.986 3.036-4.435 0-2.45-1.36-4.435-3.036-4.435-1.677 0-3.036 1.985-3.036 4.435 0 2.449 1.359 4.435 3.036 4.435z" fill="#3F3D56"/><path d="M162.189 382.379c1.676 0 3.036-1.986 3.036-4.435 0-2.45-1.36-4.435-3.036-4.435-1.677 0-3.036 1.985-3.036 4.435 0 2.449 1.359 4.435 3.036 4.435z" fill="#3F3D56"/><path d="M162.189 376.963c1.676 0 3.036-1.986 3.036-4.435 0-2.45-1.36-4.435-3.036-4.435-1.677 0-3.036 1.985-3.036 4.435 0 2.449 1.359 4.435 3.036 4.435z" fill="#3F3D56"/><path d="M162.189 371.547c1.676 0 3.036-1.986 3.036-4.435 0-2.45-1.36-4.435-3.036-4.435-1.677 0-3.036 1.985-3.036 4.435 0 2.449 1.359 4.435 3.036 4.435z" fill="#3F3D56"/><path d="M173.56 330.038c.415-.59.792-1.212 1.129-1.862l-7.979-1.457 8.629.071a17.831 17.831 0 0 0 1.329-6.393 17.934 17.934 0 0 0-1.048-6.458l-11.582 6.696 10.702-8.764c-1.002-1.925-2.349-3.6-3.957-4.92a13.903 13.903 0 0 0-5.388-2.754 13.099 13.099 0 0 0-5.927-.13 13.765 13.765 0 0 0-5.481 2.515c-1.653 1.248-3.058 2.862-4.127 4.742a17.376 17.376 0 0 0-2.088 6.183 18.032 18.032 0 0 0 .297 6.598 17.032 17.032 0 0 0 2.634 5.919 16.45 16.45 0 0 0-1.658 2.957l10.357 5.999-11.046-4.137a17.971 17.971 0 0 0-.562 7.948c.41 2.66 1.41 5.164 2.909 7.284-1.688 2.392-2.739 5.266-3.031 8.293a17.848 17.848 0 0 0 1.378 8.821c1.193 2.739 3.054 5.047 5.369 6.663 2.315 1.615 4.991 2.471 7.722 2.471 2.731 0 5.407-.856 7.722-2.471 2.315-1.616 4.176-3.924 5.369-6.663a17.86 17.86 0 0 0 1.379-8.821c-.293-3.027-1.343-5.901-3.032-8.293 2.017-2.859 3.113-6.389 3.113-10.026 0-3.636-1.096-7.167-3.113-10.025l-.019.014z" fill="#6C63FF"/><path opacity=".1" d="M147.566 340.06c-.005 3.639 1.094 7.173 3.118 10.029-1.689 2.392-2.739 5.266-3.032 8.293a17.866 17.866 0 0 0 1.379 8.822c1.193 2.738 3.054 5.046 5.369 6.662 2.315 1.615 4.991 2.472 7.722 2.472 2.731 0 5.407-.857 7.722-2.472 2.315-1.616 4.176-3.924 5.369-6.662a17.866 17.866 0 0 0 1.379-8.822c-.293-3.027-1.343-5.901-3.032-8.293 1.951-2.758-25.994-11.849-25.994-10.029z" fill="#000"/><path d="M599.472 459.469c14.412 0 26.096-2.504 26.096-5.593 0-3.09-11.684-5.594-26.096-5.594-14.413 0-26.097 2.504-26.097 5.594 0 3.089 11.684 5.593 26.097 5.593z" fill="#6C63FF"/><path d="M599.038 455.937c1.677 0 3.036-1.986 3.036-4.436 0-2.449-1.359-4.435-3.036-4.435-1.676 0-3.036 1.986-3.036 4.435 0 2.45 1.36 4.436 3.036 4.436z" fill="#3F3D56"/><path d="M599.038 450.521c1.677 0 3.036-1.986 3.036-4.436 0-2.449-1.359-4.435-3.036-4.435-1.676 0-3.036 1.986-3.036 4.435 0 2.45 1.36 4.436 3.036 4.436z" fill="#3F3D56"/><path d="M599.038 445.105c1.677 0 3.036-1.986 3.036-4.436 0-2.449-1.359-4.435-3.036-4.435-1.676 0-3.036 1.986-3.036 4.435 0 2.45 1.36 4.436 3.036 4.436z" fill="#3F3D56"/><path d="M599.038 439.681c1.677 0 3.036-1.985 3.036-4.435 0-2.449-1.359-4.435-3.036-4.435-1.676 0-3.036 1.986-3.036 4.435 0 2.45 1.36 4.435 3.036 4.435z" fill="#3F3D56"/><path d="M599.038 434.265c1.677 0 3.036-1.985 3.036-4.435 0-2.449-1.359-4.435-3.036-4.435-1.676 0-3.036 1.986-3.036 4.435 0 2.45 1.36 4.435 3.036 4.435z" fill="#3F3D56"/><path d="M599.038 428.849c1.677 0 3.036-1.985 3.036-4.435 0-2.449-1.359-4.435-3.036-4.435-1.676 0-3.036 1.986-3.036 4.435 0 2.45 1.36 4.435 3.036 4.435z" fill="#3F3D56"/><path d="M599.038 423.433c1.677 0 3.036-1.986 3.036-4.435 0-2.45-1.359-4.435-3.036-4.435-1.676 0-3.036 1.985-3.036 4.435 0 2.449 1.36 4.435 3.036 4.435z" fill="#3F3D56"/><path d="M610.409 381.924c.415-.59.793-1.212 1.129-1.862l-7.978-1.457 8.628.071a17.815 17.815 0 0 0 1.329-6.393 17.912 17.912 0 0 0-1.048-6.458l-11.581 6.696 10.701-8.764c-1.002-1.925-2.349-3.6-3.956-4.92a13.914 13.914 0 0 0-5.389-2.754 13.095 13.095 0 0 0-5.926-.13 13.774 13.774 0 0 0-5.482 2.514c-1.653 1.249-3.058 2.863-4.127 4.743a17.395 17.395 0 0 0-2.088 6.183 18.01 18.01 0 0 0 .298 6.598 17.011 17.011 0 0 0 2.633 5.919 16.45 16.45 0 0 0-1.658 2.957l10.357 5.999-11.045-4.137a17.957 17.957 0 0 0-.563 7.948c.41 2.66 1.41 5.164 2.909 7.284-1.688 2.392-2.739 5.266-3.031 8.293a17.848 17.848 0 0 0 1.378 8.821c1.193 2.739 3.054 5.047 5.369 6.663 2.315 1.615 4.991 2.471 7.722 2.471 2.732 0 5.408-.856 7.723-2.471 2.315-1.616 4.175-3.924 5.368-6.663a17.849 17.849 0 0 0 1.379-8.821c-.292-3.027-1.343-5.901-3.032-8.293 2.017-2.859 3.113-6.389 3.113-10.026 0-3.636-1.096-7.167-3.113-10.025l-.019.014z" fill="#6C63FF"/><path opacity=".1" d="M584.415 391.946c-.005 3.639 1.094 7.174 3.119 10.029-1.689 2.393-2.74 5.266-3.032 8.293a17.863 17.863 0 0 0 1.378 8.822c1.194 2.738 3.054 5.047 5.369 6.662 2.315 1.615 4.991 2.472 7.722 2.472 2.732 0 5.408-.857 7.723-2.472 2.315-1.615 4.175-3.924 5.368-6.662a17.853 17.853 0 0 0 1.379-8.822c-.292-3.027-1.343-5.9-3.032-8.293 1.952-2.758-25.994-11.848-25.994-10.029z" fill="#000"/><path opacity=".1" d="M257.919 77.445c5.379 0 9.739-4.859 9.739-10.853s-4.36-10.853-9.739-10.853c-5.378 0-9.738 4.859-9.738 10.853s4.36 10.853 9.738 10.853zM292.759 36.391c9.017 0 16.326-8.146 16.326-18.195C309.085 8.146 301.776 0 292.759 0c-9.016 0-16.326 8.146-16.326 18.196 0 10.049 7.31 18.195 16.326 18.195zM271.152 124.683c9.017 0 16.327-8.147 16.327-18.196 0-10.049-7.31-18.195-16.327-18.195-9.016 0-16.326 8.146-16.326 18.195s7.31 18.196 16.326 18.196zM614.733 208.227c5.378 0 9.738-4.859 9.738-10.854 0-5.994-4.36-10.853-9.738-10.853-5.378 0-9.738 4.859-9.738 10.853 0 5.995 4.36 10.854 9.738 10.854zM579.887 167.173c9.017 0 16.326-8.147 16.326-18.196 0-10.049-7.309-18.196-16.326-18.196s-16.326 8.147-16.326 18.196c0 10.049 7.309 18.196 16.326 18.196zM601.5 255.464c9.016 0 16.326-8.146 16.326-18.195 0-10.05-7.31-18.196-16.326-18.196-9.017 0-16.326 8.146-16.326 18.196 0 10.049 7.309 18.195 16.326 18.195zM64.265 223.181c3.046 0 5.516-2.752 5.516-6.148 0-3.395-2.47-6.148-5.516-6.148-3.047 0-5.517 2.753-5.517 6.148 0 3.396 2.47 6.148 5.517 6.148zM87.912 204.069c5.107 0 9.247-4.614 9.247-10.306 0-5.692-4.14-10.306-9.247-10.306s-9.247 4.614-9.247 10.306c0 5.692 4.14 10.306 9.247 10.306zM43.653 220.054c5.107 0 9.247-4.614 9.247-10.306 0-5.692-4.14-10.306-9.247-10.306s-9.247 4.614-9.247 10.306c0 5.692 4.14 10.306 9.247 10.306zM473.054 186.221c3.046 0 5.516-2.752 5.516-6.148 0-3.395-2.47-6.148-5.516-6.148-3.047 0-5.517 2.753-5.517 6.148 0 3.396 2.47 6.148 5.517 6.148zM496.701 167.109c5.107 0 9.247-4.614 9.247-10.306 0-5.692-4.14-10.307-9.247-10.307s-9.247 4.615-9.247 10.307 4.14 10.306 9.247 10.306zM452.442 183.094c5.107 0 9.247-4.614 9.247-10.306 0-5.692-4.14-10.306-9.247-10.306-5.108 0-9.248 4.614-9.248 10.306 0 5.692 4.14 10.306 9.248 10.306zM138.121 126.922c12.768 0 23.118-11.536 23.118-25.765 0-14.23-10.35-25.766-23.118-25.766-12.768 0-23.118 11.536-23.118 25.766 0 14.229 10.35 25.765 23.118 25.765zM270.132 201.318c7.368 0 13.342-6.657 13.342-14.869s-5.974-14.869-13.342-14.869-13.341 6.657-13.341 14.869 5.973 14.869 13.341 14.869zM402.144 297.983c7.368 0 13.341-6.658 13.341-14.87s-5.973-14.869-13.341-14.869c-7.369 0-13.342 6.657-13.342 14.869s5.973 14.87 13.342 14.87z" fill="#6C63FF"/><path d="M162.623 421.18c42.089 0 76.209-7.637 76.209-17.058 0-9.422-34.12-17.059-76.209-17.059-42.09 0-76.21 7.637-76.21 17.059 0 9.421 34.12 17.058 76.21 17.058zM599.472 471.645c42.089 0 76.209-7.638 76.209-17.059 0-9.421-34.12-17.058-76.209-17.058-42.09 0-76.21 7.637-76.21 17.058s34.12 17.059 76.21 17.059zM76.528 471.645c42.089 0 76.209-7.638 76.209-17.059 0-9.421-34.12-17.058-76.21-17.058-42.089 0-76.209 7.637-76.209 17.058s34.12 17.059 76.21 17.059z" stroke="#444053" stroke-miterlimit="10"/></g><defs><linearGradient id="paint0_linear" x1="260.604" y1="423.384" x2="260.604" y2="209.862" gradientUnits="userSpaceOnUse"><stop stop-color="gray" stop-opacity=".25"/><stop offset=".54" stop-color="gray" stop-opacity=".12"/><stop offset="1" stop-color="gray" stop-opacity=".1"/></linearGradient><linearGradient id="paint1_linear" x1="-29087.3" y1="84967.8" x2="-33967.9" y2="84967.8" gradientUnits="userSpaceOnUse"><stop stop-color="gray" stop-opacity=".25"/><stop offset=".54" stop-color="gray" stop-opacity=".12"/><stop offset="1" stop-color="gray" stop-opacity=".1"/></linearGradient><clipPath id="clip0"><path fill="#fff" d="M0 0h676v472H0z"/></clipPath></defs></svg>