<svg width="676" height="472" viewBox="0 0 676 472" fill="none" xmlns="http://www.w3.org/2000/svg">
<g clip-path="url(#clip0)">
<path d="M517.523 420.825C559.612 420.825 593.732 413.187 593.732 403.766C593.732 394.345 559.612 386.708 517.523 386.708C475.434 386.708 441.313 394.345 441.313 403.766C441.313 413.187 475.434 420.825 517.523 420.825Z" stroke="#444053" stroke-miterlimit="10"/>
<path d="M229.929 267.882C230.153 268.514 230.406 269.134 230.688 269.737V269.815C230.688 269.815 234.298 284.677 235.988 287.797C236.479 288.7 237.034 289.681 237.582 290.64C237.474 291.346 237.474 292.067 237.582 292.773C238.092 296.085 238.711 300.641 238.43 301.643C238.15 302.645 238.768 305.14 237.793 306.007C236.817 306.874 235.816 308.381 238.807 310.378C238.807 310.378 239.368 312.063 238.864 312.44C238.807 312.482 238.864 312.575 239.004 312.696C238.182 315.411 236.976 319.803 237.729 320.116C238.143 320.294 239.266 319.64 240.497 318.758C240.528 318.936 240.554 319.128 240.586 319.32C240.782 320.783 241.084 322.226 241.491 323.634C242.04 324.992 242.588 327.281 242.295 328.034C242.002 328.787 243.099 330.465 242.843 331.126C242.588 331.787 243.692 333.933 243.692 333.933C243.692 333.933 244.789 338.098 244.744 339.506C244.699 340.913 245.93 349.99 245.93 349.99C245.93 349.99 244.655 354.674 245.292 356.031C245.93 357.389 246.345 362.073 245.292 363.807C244.24 365.541 242.92 369.372 243.347 370.403C243.775 371.433 242.754 384.17 245.331 389.416C245.661 391.367 245.901 393.337 246.051 395.315C246.051 396.737 248.079 400.511 248.079 400.511C248.079 400.511 246.855 406.197 249.859 407.157C250.066 407.229 250.28 407.274 250.496 407.292C250.588 407.913 250.513 408.552 250.279 409.126C249.766 409.917 249.402 410.817 249.208 411.77C249.164 411.949 249.184 412.14 249.265 412.303C249.603 412.722 250.541 418.344 250.541 418.344C250.541 418.344 251.893 424.663 259.335 423.121C259.335 423.121 264.367 422.794 263.946 420.825C263.808 420.175 263.624 419.538 263.398 418.92C263.22 418.52 263.063 418.109 262.926 417.69C262.843 417.221 261.784 415.906 261.701 415.018C261.618 414.129 260.942 412.395 261.064 411.834C261.185 411.272 259.922 407.249 259.833 406.354C259.729 405.73 259.569 405.121 259.354 404.534L259.622 404.392C259.622 404.392 260.298 400.177 259.712 398.635C259.125 397.092 256.791 395.081 256.791 395.081C256.791 395.081 257.129 384.732 256.708 383.325C256.287 381.917 256.918 376.587 256.918 376.587C256.918 376.587 258.353 369.045 258.27 367.347C258.222 366.295 258.365 365.243 258.691 364.255C258.691 364.255 259.584 353.16 260.171 351.752C260.757 350.345 261.446 336.585 261.446 336.585L261.842 337.85C262.397 339.748 263.058 341.607 263.819 343.415C264.144 343.984 265.094 345.803 265.91 347.324L267.116 349.599C267.116 349.599 267.664 351.802 267.281 353.153C266.899 354.503 271.216 361.81 271.216 361.81C270.938 362.42 270.794 363.094 270.795 363.779C270.917 364.489 269.482 366.728 269.482 366.728C269.482 366.728 268.933 368.74 269.271 369.443C269.609 370.147 268.723 374.312 268.723 374.312C268.723 374.312 267.281 383.488 266.943 384.568C266.605 385.649 267.116 393.041 267.116 393.041C267.116 393.041 264.463 400.611 265.693 403.127C265.745 404.058 265.751 405.479 265.426 406.055C264.986 406.823 265.113 409.659 265.158 410.44C265.158 410.576 265.158 410.647 265.158 410.647C265.158 410.647 263.717 412.779 265.534 413.646C267.352 414.513 273.531 415.139 273.531 415.139C273.531 415.139 279.405 417.015 282.236 417.527C285.068 418.039 290.992 417.854 291.413 415.935C291.563 415.339 291.615 414.717 291.566 414.101C291.528 413.712 291.401 413.34 291.197 413.021C290.992 412.702 290.718 412.447 290.399 412.281C288.658 411.51 286.878 410.852 285.068 410.313C285.068 410.313 282.275 409.602 282.02 408.251C281.764 406.901 277.791 403.148 277.791 403.148C277.791 403.148 277.747 402.885 277.664 402.53H277.791L277.6 402.316C277.402 401.606 277.083 400.667 276.694 400.845C276.634 400.718 276.597 400.578 276.586 400.435C276.575 400.291 276.59 400.146 276.63 400.01C276.671 399.873 276.736 399.747 276.821 399.638C276.907 399.53 277.011 399.443 277.128 399.381C278.652 398.45 279.583 395.5 279.156 392.316C278.729 389.132 278.652 389.693 279.539 387.866C280.089 386.486 280.308 384.97 280.176 383.467L282.517 373.743C282.884 372.549 283.111 371.307 283.193 370.047C283.233 369.057 283.463 368.087 283.869 367.204C283.869 367.204 284.928 360.459 285.859 358.917C286.79 357.374 285.221 351.937 285.221 351.937C285.221 351.937 283.786 343.514 283.869 339.669C283.952 335.824 280.145 322.49 280.145 322.49C279.656 321.624 279.449 320.598 279.558 319.583C279.634 318.787 279.188 317.493 278.684 316.335L278.525 315.972C278.719 315.694 278.954 315.453 279.22 315.261C280.266 314.551 280.757 312.681 280.763 311.366L266.344 273.49C266.344 273.376 273.021 258.173 273.002 258.059C272.607 255.564 268.831 248.947 268.831 248.947C268.795 248.864 268.74 248.793 268.672 248.741C267.824 248.307 264.954 246.495 264.954 246.495C262.703 243.396 260.592 242.756 259.214 242.777C258.781 242.771 258.35 242.846 257.939 242.998C257.792 243.048 257.649 243.113 257.511 243.189L257.448 243.808C257.33 242.378 257.431 240.936 257.747 239.543C257.779 239.422 257.811 239.294 257.837 239.174C258.047 239.174 258.257 239.174 258.474 239.174C259.824 239.178 261.162 238.887 262.411 238.315C263.66 237.744 264.795 236.904 265.753 235.843C266.711 234.782 267.471 233.522 267.992 232.134C268.512 230.745 268.782 229.256 268.787 227.752C268.786 226.682 268.653 225.618 268.391 224.589L268.34 224.425L268.659 224.269C269.934 223.743 271.535 224.638 272.568 223.686C272.943 223.272 273.211 222.754 273.346 222.186C273.632 221.425 273.823 220.624 273.914 219.805C273.914 219.663 273.914 219.521 273.914 219.379C273.917 219.336 273.917 219.293 273.914 219.251C273.917 219.199 273.917 219.147 273.914 219.094C273.914 219.03 273.914 218.967 273.914 218.903C273.914 218.839 273.914 218.903 273.914 218.903C273.856 218.38 273.666 217.887 273.365 217.481C272.689 216.6 271.561 216.386 270.706 215.74C270.007 215.136 269.428 214.379 269.003 213.515C268.578 212.656 268.018 211.888 267.352 211.248C267.013 210.93 266.603 210.722 266.165 210.646C265.728 210.569 265.281 210.628 264.871 210.814C264.621 211.004 264.345 211.148 264.055 211.24C263.738 211.245 263.427 211.152 263.155 210.97C260.222 209.442 256.778 209.712 253.589 210.167C252.293 210.282 251.022 210.623 249.82 211.176C249.22 211.452 248.681 211.87 248.24 212.401C247.799 212.933 247.468 213.565 247.269 214.254C247.008 215.356 247.206 216.55 246.893 217.637C246.676 218.348 246.255 219.002 245.987 219.72C245.857 220.096 245.776 220.491 245.745 220.893C245.745 220.893 245.745 220.971 245.745 221.006C245.637 222.62 246.204 224.319 246.479 225.982C246.855 228.249 246.663 230.715 247.537 232.862C247.624 233.125 247.736 233.378 247.869 233.615C247.563 234.326 247.231 235.08 246.912 235.783C246.44 235.634 244.999 235.279 244.948 236.686C244.938 237.83 244.698 238.957 244.246 239.984C244.179 240.043 244.109 240.098 244.036 240.147C243.958 240.187 243.894 240.253 243.851 240.336C243.809 240.419 243.791 240.515 243.8 240.609L243.634 240.752C243.561 240.757 243.491 240.784 243.43 240.83C243.341 240.659 243.048 240.645 242.116 241.882C240.877 243.318 239.452 244.54 237.888 245.507C237.888 245.507 231.626 250.375 231.288 252.614C230.95 254.853 228.858 264.633 229.929 267.882ZM257.428 244.128C257.428 244.128 257.428 244.078 257.428 244.05L257.505 244.092L257.428 244.128ZM274.443 403.34C274.274 403.42 274.092 403.461 273.908 403.461L274.443 403.34Z" fill="url(#paint0_linear)"/>
<path d="M260.024 423.142C252.671 424.677 251.332 418.394 251.332 418.394C251.332 418.394 250.413 412.807 250.056 412.388C249.975 412.225 249.955 412.034 249.999 411.855C250.191 410.908 250.551 410.014 251.057 409.225C251.517 408.621 251.14 406.105 251.14 406.105L259.66 403.688C260.025 404.585 260.305 405.521 260.496 406.481C260.585 407.363 261.835 411.372 261.708 411.926C261.58 412.48 262.256 414.207 262.345 415.096C262.435 415.984 263.474 417.285 263.557 417.747C263.685 418.168 263.839 418.579 264.016 418.977C264.244 419.589 264.425 420.221 264.558 420.867C264.992 422.815 260.024 423.142 260.024 423.142Z" fill="#444053"/>
<path opacity="0.1" d="M260.024 423.142C252.671 424.677 251.332 418.394 251.332 418.394C251.332 418.394 250.413 412.807 250.056 412.388C249.975 412.225 249.955 412.034 249.999 411.855L251.765 417.541C251.765 417.541 253.232 420.945 258.659 420.427C261.752 420.142 263.27 419.503 264.01 419.005C264.237 419.617 264.419 420.25 264.552 420.896C264.992 422.815 260.024 423.142 260.024 423.142Z" fill="black"/>
<path opacity="0.1" d="M254.297 414.293C254.297 414.293 256.14 414.342 256.261 412.665L254.297 414.293Z" fill="black"/>
<path d="M286.26 359.258C285.342 360.793 284.296 367.496 284.296 367.496C283.907 368.383 283.69 369.352 283.658 370.339C283.591 371.592 283.376 372.829 283.021 374.02L280.604 383.659C280.732 385.152 280.513 386.658 279.966 388.03C279.092 389.849 279.175 389.288 279.59 392.458C280.004 395.628 279.092 398.556 277.587 399.487C276.082 400.418 278.257 402.608 278.257 402.608C278.257 402.608 268.646 405.493 266.637 403.723C264.628 401.954 267.683 393.204 267.683 393.204C267.683 393.204 267.186 385.848 267.517 384.774C267.849 383.701 269.271 374.575 269.271 374.575C269.271 374.575 270.151 370.431 269.813 369.735C269.475 369.038 270.024 367.034 270.024 367.034C270.024 367.034 271.446 364.795 271.299 364.098C271.302 363.419 271.446 362.75 271.72 362.144C271.72 362.144 267.46 354.879 267.83 353.529C268.2 352.179 267.664 349.975 267.664 349.975C267.664 349.975 267.128 348.945 266.478 347.715C265.687 346.201 264.73 344.396 264.405 343.827C263.658 342.029 263.009 340.182 262.46 338.297L262.065 337.032C262.065 337.032 261.427 350.721 260.789 352.115C260.152 353.508 259.329 364.553 259.329 364.553C259.004 365.534 258.86 366.579 258.908 367.624C258.991 369.344 257.569 376.864 257.569 376.864C257.569 376.864 256.931 382.173 257.365 383.573C257.798 384.973 257.448 395.258 257.448 395.258C257.448 395.258 259.743 397.263 260.33 398.812C260.917 400.362 260.247 404.541 260.247 404.541C260.247 404.541 253.564 408.265 250.592 407.284C247.62 406.304 248.838 400.674 248.838 400.674C248.838 400.674 246.836 396.95 246.836 395.507C246.687 393.538 246.448 391.578 246.121 389.636C243.57 384.419 244.578 371.76 244.163 370.73C243.749 369.699 245.037 365.889 246.077 364.169C247.116 362.449 246.714 357.772 246.077 356.436C245.439 355.1 246.714 350.43 246.714 350.43C246.714 350.43 245.503 341.396 245.547 340.003C245.592 338.61 244.501 334.459 244.501 334.459C244.501 334.459 243.417 332.327 243.666 331.666C243.915 331.005 242.831 329.334 243.124 328.595C243.417 327.856 242.869 325.567 242.327 324.217C241.93 322.823 241.631 321.398 241.434 319.952C241.179 318.346 240.994 316.932 240.994 316.932L247.888 310.741L265.107 305.709L271.637 303.342L277.944 314.423C277.944 314.423 278.582 315.581 279.175 316.917C279.673 318.069 280.113 319.355 280.036 320.151C279.931 321.16 280.138 322.178 280.623 323.037C280.623 323.037 284.379 336.307 284.296 340.096C284.213 343.884 285.635 352.299 285.635 352.299C285.635 352.299 287.179 357.723 286.26 359.258Z" fill="#3F3D56"/>
<path opacity="0.1" d="M247.575 366.195C247.575 366.195 254.929 362.705 257.097 365.172C259.265 367.638 247.575 366.195 247.575 366.195Z" fill="black"/>
<path opacity="0.1" d="M251.708 367.588C251.708 367.588 244.253 372.286 246.804 373.04C249.355 373.793 251.708 367.588 251.708 367.588Z" fill="black"/>
<path opacity="0.1" d="M273.933 363.544C273.933 363.544 270.745 363.771 271.969 364.475C273.193 365.178 273.933 363.544 273.933 363.544Z" fill="black"/>
<path opacity="0.1" d="M277.906 364.61C277.861 364.845 268.672 368.164 270.47 369.642C272.268 371.121 277.906 364.61 277.906 364.61Z" fill="black"/>
<path opacity="0.1" d="M248.659 393.105C250.037 392.877 257.728 388.918 254.718 391.761C253.913 392.577 252.923 393.133 251.856 393.37C250.789 393.606 249.684 393.515 248.659 393.105Z" fill="black"/>
<path opacity="0.1" d="M252.46 396.225C252.46 396.225 253.13 399.118 255.681 398.741C258.232 398.364 252.46 396.225 252.46 396.225Z" fill="black"/>
<path opacity="0.1" d="M250.33 402.096C250.789 401.954 256.261 399.161 256.389 400.468C256.516 401.776 251.166 404.022 250.751 403.354C250.511 402.985 250.365 402.55 250.33 402.096Z" fill="black"/>
<path opacity="0.1" d="M268.047 398.741C268.685 398.698 274.979 396.459 276.235 398.464L268.047 398.741Z" fill="black"/>
<path opacity="0.1" d="M273.729 400.049C273.729 400.049 274.813 398.976 275.897 399.537C276.981 400.099 273.729 400.049 273.729 400.049Z" fill="black"/>
<path opacity="0.1" d="M259.858 411.592C259.926 411.988 260.096 412.354 260.347 412.644C260.599 412.935 260.921 413.137 261.274 413.227L259.858 411.592Z" fill="black"/>
<path d="M291.732 415.97C291.318 417.882 285.463 418.067 282.67 417.555C279.877 417.043 274.061 415.181 274.061 415.181C274.061 415.181 267.964 414.527 266.165 413.689C264.367 412.85 265.789 410.711 265.789 410.711C265.789 410.711 265.789 410.639 265.789 410.512C265.744 409.73 265.623 406.908 266.051 406.147C266.554 405.259 266.261 402.373 266.261 402.373C266.261 402.373 274.909 404.235 275.075 403.354C275.24 402.473 276.58 401.222 277.205 400.93C277.83 400.639 278.295 403.262 278.295 403.262C278.295 403.262 282.224 406.986 282.472 408.337C282.721 409.687 285.476 410.384 285.476 410.384C287.265 410.918 289.024 411.571 290.744 412.338C291.059 412.503 291.331 412.756 291.533 413.072C291.735 413.389 291.861 413.757 291.898 414.144C291.943 414.759 291.887 415.378 291.732 415.97Z" fill="#444053"/>
<path opacity="0.1" d="M291.732 415.97C291.318 417.882 285.463 418.067 282.67 417.555C279.877 417.043 274.061 415.181 274.061 415.181C274.061 415.181 267.964 414.527 266.165 413.689C264.367 412.85 265.789 410.71 265.789 410.71C265.789 410.71 265.789 410.639 265.789 410.511L274.533 412.644C274.533 412.644 278.837 414.691 281.592 414.691C284.003 414.691 289.392 415.792 291.898 414.122C291.945 414.744 291.889 415.371 291.732 415.97Z" fill="black"/>
<path opacity="0.1" d="M279.909 408.614C279.909 408.614 279.494 411.684 277.823 412.715L279.909 408.614Z" fill="black"/>
<path d="M306.687 295.431C304.2 296.483 298.461 296.597 295.91 296.597C295.132 296.597 294.634 296.597 294.634 296.597L292.995 292.872L294.634 289.766C294.634 289.766 296.139 289.304 298.142 288.899C301.094 288.309 305.157 287.847 307.07 289.176C310.284 291.401 309.94 294.102 306.687 295.431Z" fill="#A1616A"/>
<path d="M268.697 250.859L269.424 249.928C269.424 249.928 273.155 256.509 273.544 258.99C273.933 261.47 274.437 264.328 274.437 264.328C274.437 264.328 275.381 267.555 275.999 268.983C276.526 270.066 276.937 271.213 277.224 272.402C277.275 273.02 277 274.385 278.168 275.245C279.335 276.105 279.615 278.472 279.615 278.472C279.615 278.472 283.85 283.064 286.082 283.192C288.314 283.32 294.71 284.556 294.494 285.793C294.277 287.03 297.166 287.783 298.32 288.096C299.474 288.409 290.807 292.14 295.909 296.945C295.909 296.945 292.676 297.656 292.344 298.558C292.013 299.461 288.614 298.061 288.614 298.061C288.614 298.061 287.887 296.135 285.38 296.014C282.874 295.893 281.592 294.649 281.592 294.464C281.592 294.28 279.086 292.723 277.696 292.289C276.305 291.856 274.462 291.671 274.405 291.23C274.347 290.79 266.051 250.88 266.051 250.88L268.697 250.859Z" fill="#6C63FF"/>
<path opacity="0.05" d="M268.697 251.015L269.424 250.084C269.424 250.084 273.155 256.666 273.544 259.153C273.933 261.641 274.437 264.491 274.437 264.491C274.437 264.491 275.381 267.718 275.999 269.147C276.525 270.227 276.935 271.372 277.224 272.558C277.275 273.184 277 274.549 278.168 275.401C279.335 276.254 279.615 278.628 279.615 278.628C279.615 278.628 283.85 283.227 286.082 283.348C288.314 283.469 294.71 284.712 294.494 285.956C294.277 287.2 297.166 287.947 298.32 288.252C299.474 288.558 290.807 292.304 295.909 297.087C295.909 297.087 292.676 297.798 292.344 298.7C292.013 299.603 288.614 298.203 288.614 298.203C288.614 298.203 287.887 296.277 285.38 296.156C282.874 296.035 281.592 294.791 281.592 294.599C281.592 294.407 279.086 292.865 277.696 292.431C276.305 291.998 274.462 291.806 274.405 291.372C274.347 290.939 266.051 251.015 266.051 251.015H268.697Z" fill="black"/>
<path d="M353.943 419.751C396.034 419.751 430.153 427.392 430.153 436.81C430.153 446.228 396.034 453.868 353.943 453.868C311.853 453.868 277.734 446.235 277.734 436.81" stroke="#444053" stroke-miterlimit="10"/>
<path d="M338.282 68.2035L327.537 66.1715L313.981 155.216L324.726 157.248L338.282 68.2035Z" fill="#444053"/>
<path d="M350.972 425.573L353.357 444.55L355.398 424.819L350.972 425.573Z" fill="#D0D2D5"/>
<path d="M274.354 414.947V426.717L276.739 436.959H278.442L280.489 425.956L281.509 412.672L274.354 414.947Z" fill="#3F3D56"/>
<path d="M269.501 369.031L274.603 370.168C274.603 370.168 268.818 388.001 272.9 391.797H266.44C266.44 391.797 264.055 378.136 269.501 369.031Z" fill="#D0D2D5"/>
<path opacity="0.1" d="M269.501 369.031L274.603 370.168C274.603 370.168 268.818 388.001 272.9 391.797H266.44C266.44 391.797 264.055 378.136 269.501 369.031Z" fill="black"/>
<path d="M303.639 154.613L287.294 269.978C287.294 269.978 263.123 392.941 272.313 417.228H283.894L318.626 181.182L303.639 154.613Z" fill="#D0D2D5"/>
<path d="M345.092 140.284L357.623 256.239C357.623 256.239 366.749 403.958 356.756 427.847H346.884L329.244 166.22L345.092 140.284Z" fill="#D0D2D5"/>
<path d="M302.115 112.465C302.956 109.315 304.706 106.563 307.094 104.635C309.483 102.708 312.375 101.712 315.322 101.803C325.405 102.088 340.991 104.135 349.122 113.417C361.724 127.839 340.608 176.413 340.608 176.413C340.608 176.413 320.839 217.019 302.816 165.41C302.791 165.453 295.316 137.818 302.115 112.465Z" fill="#444053"/>
<path opacity="0.1" d="M302.115 112.465C302.956 109.315 304.706 106.563 307.094 104.635C309.483 102.708 312.375 101.712 315.322 101.803C325.405 102.088 340.991 104.135 349.122 113.417C361.724 127.839 340.608 176.413 340.608 176.413C340.608 176.413 320.839 217.019 302.816 165.41C302.791 165.453 295.316 137.818 302.115 112.465Z" fill="black"/>
<path d="M309.047 122.33C309.653 120.093 310.902 118.139 312.601 116.77C314.301 115.401 316.357 114.693 318.453 114.754C325.628 114.96 336.725 116.417 342.496 123.027C351.469 133.29 336.438 167.876 336.438 167.876C336.438 167.876 322.407 196.783 309.525 160.058C309.525 160.037 304.2 140.384 309.047 122.33Z" fill="#444053"/>
<path d="M343.95 417.861C344.058 419.695 344.313 421.621 345.353 423.057C347.075 425.431 350.206 425.615 352.885 426.362C354.941 427.017 356.936 427.893 358.841 428.977L364.638 432.034C363.152 432.129 361.686 432.469 360.289 433.043C359.543 433.348 358.726 433.853 358.618 434.72C358.604 435.082 358.688 435.44 358.86 435.747C359.032 436.054 359.283 436.296 359.581 436.44C360.187 436.718 360.839 436.847 361.494 436.817C364.947 436.925 368.402 436.723 371.825 436.213L372.233 436.149C373.994 437.12 375.745 438.113 377.488 439.127C378.215 439.553 379.089 439.127 379.701 438.53C380.449 437.793 381.109 436.952 381.666 436.028C381.768 436.227 381.87 436.419 381.953 436.611C382.514 437.812 383.043 439.383 382.24 440.406C381.602 441.202 380.396 441.338 380.033 442.304C379.934 442.654 379.938 443.029 380.045 443.376C380.152 443.723 380.355 444.022 380.626 444.23C381.181 444.638 381.819 444.883 382.482 444.941C384.059 445.183 385.66 445.168 387.233 444.898C388.086 444.832 388.894 444.449 389.529 443.811C390.071 442.988 390.358 441.989 390.345 440.968L391.436 427.158C391.535 426.502 391.491 425.829 391.308 425.196C390.875 424.023 389.618 423.533 388.483 423.327H388.362C389.306 423.327 390.275 423.277 391.295 423.277C392.184 423.341 393.076 423.215 393.923 422.907C395.543 422.197 396.416 420.299 397.112 418.55C398.387 415.48 399.854 412.153 399.663 408.742L399.165 408.493C399.12 404.861 397.756 401.471 397.252 397.924C397.805 396.971 398.1 395.86 398.1 394.725C398.034 393.477 397.791 392.249 397.379 391.086C395.358 384.391 393.336 377.674 390.632 371.277C388.883 367.017 386.746 362.968 384.255 359.194C383.604 358.246 382.928 357.299 382.227 356.351C381.717 355.697 380.575 354.773 380.365 353.941C380.154 353.11 380.601 352.3 380.365 351.447C380.304 351.224 380.227 351.008 380.135 350.8C381.627 348.596 381.206 345.412 380.683 342.669L380.046 339.25C379.909 338.307 379.643 337.394 379.255 336.542C378.844 335.812 378.33 335.161 377.731 334.616C374.593 331.46 370.716 329.363 367.189 326.747C363.458 323.983 360.123 320.621 356.781 317.301C355.761 316.292 354.479 315.205 353.159 315.631C351.839 316.057 351.29 317.65 351.246 319.1C351.234 320.105 351.412 321.102 351.769 322.026C352.126 322.949 352.654 323.778 353.318 324.459C355.627 326.811 359.115 327.003 361.864 328.667C362.808 329.278 363.706 329.974 364.549 330.749L372.533 337.736C373.139 338.14 373.583 338.785 373.777 339.541C373.808 339.997 373.743 340.455 373.585 340.878C373.286 341.901 372.776 343.188 372.399 344.488L371.762 343.976C370.44 342.876 369.024 341.923 367.533 341.133C365.557 340.234 363.469 339.675 361.341 339.477C356.628 338.887 352.413 339.698 349.53 344.083C348.933 345.085 348.174 345.955 347.292 346.649C346.638 346.988 346.027 347.42 345.474 347.935C343.995 349.762 344.836 352.79 346.227 354.332C347.403 355.551 348.853 356.393 350.423 356.77C351.288 358.922 352.834 360.645 354.764 361.609C356.695 362.574 358.877 362.714 360.895 362.002C360.993 362.917 361.013 363.84 360.952 364.759C360.921 365.232 360.986 365.707 361.142 366.149C361.298 366.59 361.54 366.987 361.851 367.311C362.187 367.565 362.557 367.757 362.948 367.88C364.359 368.449 365.695 369.226 366.921 370.19C365.481 371.928 364.293 373.907 363.401 376.053C362.852 377.478 362.624 379.031 362.735 380.577C362.846 382.122 363.293 383.614 364.039 384.924L364.077 384.981C363.97 385.424 363.771 385.833 363.497 386.175C363.108 386.513 362.617 386.671 362.126 386.615C361.635 386.56 361.182 386.295 360.863 385.876C360.316 385.155 359.853 384.36 359.485 383.509C358.854 382.361 358.02 381.367 357.033 380.59C356.046 379.813 354.928 379.268 353.746 378.989C352.872 378.74 351.952 378.782 351.099 379.11C350.68 379.277 350.312 379.575 350.04 379.968C349.767 380.361 349.602 380.833 349.562 381.327C349.562 382.401 350.263 383.289 350.952 384.05C353.065 386.492 355.419 388.662 357.967 390.518C358.662 390.997 359.379 391.433 360.117 391.825C358.841 391.527 357.583 391.235 356.341 390.951C354.602 390.468 352.804 390.293 351.016 390.432C350.124 390.51 349.259 390.811 348.486 391.313C347.713 391.815 347.052 392.506 346.552 393.332C345.849 394.82 345.7 396.556 346.137 398.165C346.58 399.761 347.24 401.272 348.095 402.643C349.437 405.157 351.083 407.453 352.987 409.467C351.392 410 349.798 410.583 348.242 411.222C346.686 411.862 345.053 412.644 344.339 414.236C343.92 415.384 343.786 416.636 343.95 417.861ZM367.425 393.695H367.482C367.821 393.524 368.111 393.25 368.318 392.906C369.287 391.46 369.974 389.804 370.333 388.044C370.704 387.989 371.067 387.886 371.417 387.738C371.179 387.991 370.989 388.296 370.86 388.633C370.73 388.97 370.664 389.333 370.665 389.7L374.261 391.662C374.521 391.771 374.744 391.967 374.899 392.223C374.998 392.489 375.023 392.781 374.969 393.062C374.867 393.979 374.708 394.896 374.606 395.806C373.528 395.45 372.469 395.166 371.519 394.882C370.167 394.469 368.796 394.086 367.425 393.702V393.695Z" fill="url(#paint1_linear)"/>
<path d="M368.095 355.939C369 356.191 369.941 356.236 370.862 356.071C371.782 355.906 372.664 355.535 373.452 354.979C373.767 354.732 374.119 354.55 374.491 354.439C374.822 354.407 375.154 354.461 375.462 354.598C375.77 354.735 376.045 354.951 376.264 355.228C377.795 356.927 377.973 359.727 377.183 361.966C376.392 364.205 374.804 365.968 373.139 367.496C371.795 368.73 370.374 369.856 368.886 370.865C368.476 369.794 367.879 368.825 367.13 368.014C366.381 367.202 365.495 366.565 364.524 366.138C362.776 365.385 361.501 363.366 360.499 361.603C359.753 360.296 359.09 360.352 359.76 359.002C360.516 357.705 361.406 356.512 362.413 355.448C362.961 354.801 363.44 354.086 363.841 353.316C364.288 352.42 364.186 351.837 364.874 352.548C365.327 353.017 365.512 354.034 366.035 354.581C366.615 355.209 367.321 355.675 368.095 355.939Z" fill="#FABDBD"/>
<path d="M373.573 342.079C373.722 341.661 373.785 341.212 373.758 340.764C373.567 340.02 373.132 339.383 372.54 338.98L364.74 332.085C363.922 331.32 363.047 330.633 362.125 330.031C359.434 328.389 356.035 328.197 353.777 325.88C353.128 325.203 352.613 324.382 352.264 323.47C351.914 322.559 351.739 321.576 351.749 320.585C351.749 319.163 352.387 317.557 353.593 317.159C354.798 316.761 356.143 317.813 357.138 318.815C360.397 322.085 363.65 325.404 367.291 328.133C370.735 330.721 374.529 332.782 377.597 335.902C378.156 336.433 378.636 337.059 379.019 337.757C379.394 338.603 379.654 339.506 379.791 340.437L380.428 343.806C380.964 346.649 381.398 349.954 379.682 352.136C379.433 352.486 379.117 352.769 378.757 352.967C378.398 353.165 378.004 353.272 377.603 353.28C377.037 353.203 376.492 352.995 376.003 352.669C374.727 351.958 372.418 351.248 372.029 349.471C371.532 347.246 372.967 344.14 373.573 342.079Z" fill="#FABDBD"/>
<path d="M361.131 386.502C360.599 385.789 360.147 385.006 359.785 384.17C359.174 383.04 358.362 382.061 357.4 381.293C356.437 380.526 355.343 379.986 354.186 379.707C353.343 379.47 352.458 379.509 351.635 379.82C351.223 379.989 350.864 380.286 350.598 380.675C350.333 381.064 350.172 381.53 350.136 382.017C350.136 383.069 350.819 383.95 351.488 384.696C353.551 387.111 355.853 389.257 358.35 391.093C360.851 392.921 363.719 394.03 366.698 394.32C366.998 394.361 367.303 394.33 367.591 394.228C367.921 394.057 368.204 393.789 368.407 393.453C369.989 391.193 370.537 388.257 370.958 385.436C370.805 386.452 365.671 384.078 365.091 384.384C364.237 384.831 364.319 386.168 363.701 386.807C363.322 387.142 362.84 387.298 362.36 387.241C361.879 387.184 361.438 386.918 361.131 386.502Z" fill="#FABDBD"/>
<path d="M398.534 408.834C398.563 409.189 398.501 409.547 398.355 409.865C398.005 410.476 397.214 410.483 396.57 410.376C395.082 410.097 393.614 409.702 392.176 409.196L379.083 404.982C378.875 404.937 378.681 404.832 378.522 404.676C378.383 404.494 378.293 404.272 378.26 404.036C377.806 401.943 377.708 399.773 377.973 397.639C377.989 397.332 378.08 397.034 378.235 396.779C378.53 396.477 378.918 396.313 379.319 396.325C381.37 396.093 383.431 395.988 385.492 396.012C386.83 396.075 388.17 396.041 389.504 395.912C391.226 395.685 393.209 394.583 394.937 394.754C396.436 394.896 396.372 396.175 396.525 397.597C396.952 401.371 398.502 404.982 398.534 408.834Z" fill="#FABDBD"/>
<path d="M356.73 391.513C355.032 391.03 353.275 390.854 351.527 390.994C350.655 391.071 349.81 391.366 349.056 391.859C348.302 392.351 347.657 393.027 347.171 393.837C346.477 395.307 346.33 397.023 346.763 398.613C347.2 400.182 347.845 401.67 348.676 403.027C350.147 405.863 352.038 408.401 354.269 410.533C355.385 411.521 356.616 412.338 357.687 413.376C359.97 415.601 361.386 418.707 362.744 421.727C364.02 424.571 365.295 427.47 365.844 430.598C365.848 430.718 365.875 430.837 365.922 430.946C365.969 431.054 366.036 431.151 366.118 431.23C366.295 431.326 366.498 431.341 366.685 431.273L372.967 429.979C373.145 429.988 373.321 429.942 373.478 429.848C373.634 429.753 373.764 429.613 373.855 429.442C373.945 429.271 373.992 429.076 373.991 428.878C373.989 428.68 373.94 428.486 373.847 428.316C372.484 421.788 369.934 415.641 366.354 410.256C368.017 412.008 370.032 413.292 372.231 414.001C374.429 414.711 376.748 414.825 378.994 414.335C379.872 414.196 380.7 413.796 381.392 413.177C382.795 411.755 382.731 409.332 382.418 407.263C382.137 405.42 381.75 403.599 381.258 401.812C380.078 397.547 374.989 396.396 371.539 395.358C366.641 393.913 361.705 392.631 356.73 391.513Z" fill="#3F3D56"/>
<path opacity="0.1" d="M361.379 406.624C362.276 407.019 363.088 407.62 363.764 408.386C362.636 406.965 359.409 406.254 357.827 405.593C355.869 404.783 353.733 403.951 352.087 402.508C355.27 403.627 358.376 405.002 361.379 406.624Z" fill="black"/>
<path d="M381.723 436.582C382.265 437.777 382.782 439.319 382.004 440.335C381.404 441.117 380.205 441.252 379.848 442.205C379.75 442.55 379.754 442.92 379.858 443.263C379.963 443.606 380.163 443.902 380.429 444.109C380.967 444.518 381.591 444.763 382.24 444.82C383.781 445.055 385.345 445.041 386.883 444.778C387.716 444.71 388.504 444.332 389.121 443.704C389.658 442.879 389.938 441.88 389.918 440.861L390.983 427.229C391.077 426.58 391.036 425.916 390.862 425.288C390.435 424.13 389.21 423.654 388.101 423.447C386.86 423.213 385.598 423.156 384.344 423.277C383.498 423.29 382.678 423.603 382.004 424.172C381.377 424.968 380.991 425.962 380.901 427.016C380.614 428.636 379.81 430.882 379.982 432.524C380.091 433.882 381.188 435.388 381.723 436.582Z" fill="#6C63FF"/>
<path d="M367.642 432.176C365.25 431.828 362.819 432.133 360.557 433.064C359.83 433.363 359.032 433.867 358.924 434.72C358.909 435.077 358.992 435.429 359.16 435.732C359.329 436.035 359.575 436.275 359.868 436.419C360.461 436.694 361.101 436.822 361.743 436.796C365.115 436.896 368.488 436.696 371.832 436.199C372.7 436.136 373.542 435.841 374.287 435.339C374.655 435.078 374.932 434.685 375.073 434.225C375.213 433.765 375.208 433.265 375.059 432.808C374.657 431.87 373.56 431.579 373.031 430.733C372.648 430.122 372.552 429.219 371.953 428.899C371.5 428.739 371.009 428.779 370.582 429.013C369.944 429.262 368.413 429.51 367.973 430.1C367.783 430.773 367.671 431.471 367.642 432.176Z" fill="#6C63FF"/>
<path d="M358.612 363.395C363.236 363.395 366.985 359.216 366.985 354.062C366.985 348.908 363.236 344.73 358.612 344.73C353.987 344.73 350.238 348.908 350.238 354.062C350.238 359.216 353.987 363.395 358.612 363.395Z" fill="#FABDBD"/>
<path d="M378.471 349.954C377.125 348.852 375.429 348.476 373.79 348.134C373.236 347.942 372.64 347.975 372.106 348.227C371.754 348.511 371.474 348.893 371.296 349.336C370.791 350.249 370.416 351.244 370.186 352.285C370.074 352.807 370.073 353.351 370.184 353.873C370.295 354.395 370.514 354.881 370.824 355.292C371.322 355.86 372.036 356.145 372.546 356.713C372.877 357.125 373.117 357.616 373.248 358.149C373.379 358.682 373.396 359.242 373.298 359.784C373.093 360.862 372.715 361.89 372.182 362.819C370.953 365.235 369.549 367.536 367.986 369.699C366.36 371.952 364.536 374.12 363.579 376.807C363.046 378.216 362.826 379.748 362.937 381.272C363.048 382.796 363.487 384.269 364.217 385.563C365.767 388.08 368.854 389.43 371.411 388.343C371.178 388.593 370.993 388.893 370.868 389.225C370.743 389.558 370.68 389.915 370.684 390.276L374.191 392.216C374.451 392.322 374.673 392.516 374.829 392.771C374.923 393.032 374.945 393.319 374.893 393.595C374.618 395.171 374.475 396.773 374.466 398.379C374.561 399.978 375.218 401.662 376.519 402.359C377.712 402.999 379.127 402.657 380.428 402.359C383.467 401.673 386.557 401.311 389.656 401.278C391.2 401.278 392.794 401.321 394.216 400.653C395.169 400.185 395.981 399.42 396.555 398.451C397.128 397.481 397.439 396.348 397.45 395.187C397.386 393.954 397.147 392.74 396.742 391.591C394.771 384.981 392.794 378.356 390.154 372.038C388.434 367.833 386.338 363.832 383.898 360.097C383.26 359.151 382.622 358.22 381.914 357.317C381.417 356.671 380.301 355.761 380.097 354.936C379.893 354.112 380.326 353.316 380.097 352.477C379.81 351.464 379.24 350.58 378.471 349.954Z" fill="#6C63FF"/>
<path d="M399.019 409.026C395.345 407.135 391.672 405.245 387.852 403.773C385.039 402.693 381.902 401.847 379.14 403.063C378.311 403.432 377.559 403.965 376.762 404.399C374.089 405.82 371.022 406.062 368.069 406.425C361.498 407.249 355.042 408.96 348.841 411.521C347.356 412.132 345.755 412.942 345.015 414.492C344.596 415.614 344.456 416.842 344.607 418.046C344.715 419.858 344.964 421.763 345.978 423.177C347.662 425.523 350.716 425.701 353.331 426.44C355.343 427.089 357.293 427.956 359.154 429.027C365.263 432.275 371.379 435.523 377.374 439.042C378.075 439.461 378.93 439.042 379.529 438.452C381.335 436.583 382.638 434.191 383.292 431.543C383.942 428.908 384.264 426.187 384.249 423.455C386.595 423.455 388.502 423.341 390.849 423.341C391.712 423.401 392.578 423.278 393.4 422.978C394.975 422.268 395.83 420.398 396.538 418.678C397.8 415.643 399.223 412.352 399.019 409.026Z" fill="#3F3D56"/>
<path opacity="0.1" d="M356.367 418.742C358.018 417.847 359.932 417.825 361.775 417.839C362.898 417.817 364.022 417.912 365.129 418.124C366.821 418.626 368.464 419.314 370.033 420.178C373.945 422.007 378.151 422.926 382.393 422.879" fill="black"/>
<path d="M346.839 355.384C348.101 356.682 349.666 357.556 351.354 357.907C353.012 358.334 354.721 358.497 356.392 358.91C358.446 359.414 360.691 360.622 361.156 362.911C361.264 363.828 361.285 364.754 361.22 365.676C361.19 366.137 361.251 366.6 361.4 367.031C361.549 367.462 361.781 367.851 362.081 368.171C362.41 368.419 362.771 368.608 363.152 368.732C366.498 370.158 369.381 372.671 371.428 375.946C373.475 379.222 374.591 383.107 374.632 387.099C375.682 386.416 376.582 385.479 377.264 384.357C377.946 383.235 378.393 381.957 378.573 380.616C378.573 383.09 380.486 385.592 379.402 387.802C380.584 386.941 381.594 385.815 382.366 384.496C383.138 383.177 383.655 381.694 383.886 380.141C384.117 378.587 384.056 376.997 383.707 375.471C383.357 373.946 382.727 372.517 381.857 371.277C381.015 370.083 379.944 369.088 379.064 367.943C377.814 366.336 376.876 364.458 376.308 362.428C375.739 360.398 375.553 358.259 375.76 356.145C375.945 354.346 376.398 352.527 376.06 350.757C375.569 348.305 373.637 346.599 371.8 345.142C370.509 344.059 369.125 343.121 367.667 342.342C365.738 341.451 363.696 340.897 361.615 340.7C357.017 340.124 352.929 340.92 350.079 345.249C349.501 346.238 348.761 347.096 347.898 347.779C347.258 348.116 346.66 348.544 346.118 349.051C344.658 350.857 345.487 353.842 346.839 355.384Z" fill="#3F3D56"/>
<path d="M260.834 251.321C260.573 251.2 242.397 242.834 244.891 241.171C246.377 240.183 248.207 236.004 249.457 232.727C250.331 230.445 250.924 228.597 250.924 228.597C250.924 228.597 265.515 225.712 260.292 235.705C259.469 237.235 258.848 238.889 258.449 240.616C256.944 247.369 260.687 251.193 260.834 251.321Z" fill="#A1616A"/>
<path opacity="0.1" d="M260.273 235.676C259.45 237.206 258.829 238.86 258.43 240.588C256.579 240.441 254.8 239.734 253.283 238.545C251.766 237.355 250.569 235.727 249.82 233.836C249.673 233.475 249.545 233.105 249.438 232.727C250.311 230.445 250.904 228.597 250.904 228.597C250.904 228.597 265.496 225.712 260.273 235.676Z" fill="black"/>
<path d="M269.341 228.882C269.331 231.482 268.521 233.999 267.047 236.015C265.573 238.03 263.524 239.422 261.242 239.958C258.959 240.494 256.58 240.142 254.502 238.961C252.424 237.78 250.771 235.84 249.82 233.466C249.245 232.023 248.949 230.461 248.953 228.882C248.966 226.151 249.859 223.517 251.471 221.461C253.082 219.404 255.303 218.063 257.729 217.68C260.154 217.298 262.622 217.902 264.682 219.38C266.741 220.859 268.255 223.114 268.946 225.733C269.208 226.757 269.341 227.817 269.341 228.882Z" fill="#A1616A"/>
<path opacity="0.1" d="M279.175 316.91C278.445 317.796 277.935 318.879 277.696 320.052C277.696 320.052 272.683 323.869 273.015 321.473C273.346 319.078 270.4 309.248 270.4 309.248L270.731 322.568C270.731 322.568 254.692 321.729 253.513 320.436C252.333 319.142 245.528 316.605 245.528 316.605C245.528 316.605 243.43 318.481 241.498 319.903C241.243 318.296 241.058 316.882 241.058 316.882L247.952 310.691L265.17 305.659L271.637 303.342L277.944 314.423C277.944 314.423 278.595 315.574 279.175 316.91Z" fill="black"/>
<path d="M279.698 315.858C278.365 316.789 277.862 319.306 277.862 319.306C277.862 319.306 272.849 323.122 273.181 320.727C273.512 318.332 270.591 308.53 270.591 308.53L270.929 321.85C270.929 321.85 254.884 321.011 253.71 319.718C252.537 318.424 245.688 315.901 245.688 315.901C245.688 315.901 239.757 321.21 238.673 320.741C237.588 320.272 240.586 311.245 240.586 311.245L243.672 258.35C243.672 258.35 242.837 242.614 244.093 242.052C244.287 241.967 244.464 241.841 244.616 241.683C245.445 240.858 245.694 239.181 245.764 237.766C245.847 236.096 247.85 236.927 247.85 236.927L246.683 238.605L257.039 245.62L257.129 245.684C257.543 245.447 257.969 245.236 258.404 245.052C259.323 244.661 260.541 244.291 261.338 244.661C261.783 244.915 262.161 245.295 262.435 245.762C263.027 246.751 263.501 247.821 263.844 248.947L267.607 256.019C267.607 256.019 269.52 265.429 269.52 265.799C269.52 266.168 270.107 274.74 270.795 275.671C271.484 276.603 272.135 281.258 271.886 282.658C271.637 284.059 272.3 289.268 272.3 289.268C275.062 291.785 276.478 300.349 276.478 300.349C276.478 300.349 280.827 309.945 281.159 311.061C281.49 312.177 281.037 314.927 279.698 315.858Z" fill="#444053"/>
<path opacity="0.1" d="M257.052 245.954C256.032 247.632 253.098 249.984 253.098 249.984L244.629 242.017C245.458 241.192 245.707 239.508 245.777 238.1C245.86 236.423 247.862 237.262 247.862 237.262L247.62 237.61C247.504 237.777 247.422 237.97 247.377 238.175C247.333 238.381 247.327 238.594 247.362 238.802C247.396 239.01 247.469 239.207 247.576 239.381C247.683 239.556 247.822 239.703 247.984 239.813L257.052 245.954Z" fill="black"/>
<path d="M257.052 245.578C256.032 247.255 253.098 249.615 253.098 249.615L244.629 241.64C245.458 240.815 245.707 239.138 245.777 237.724C245.86 236.053 247.862 236.885 247.862 236.885L247.62 237.233C247.504 237.401 247.422 237.593 247.377 237.798C247.333 238.004 247.327 238.217 247.362 238.425C247.396 238.633 247.469 238.83 247.576 239.005C247.683 239.179 247.822 239.326 247.984 239.437L257.052 245.578Z" fill="#444053"/>
<path opacity="0.1" d="M260.968 246.836C259.871 248.293 258.321 249.949 258.417 249.117C258.513 248.286 257.492 246.459 256.861 245.642C257.854 245.293 258.922 245.326 259.896 245.734C260.333 245.993 260.702 246.372 260.968 246.836Z" fill="black"/>
<path d="M261.134 246.274C260.037 247.738 258.487 249.387 258.583 248.563C258.678 247.738 257.76 246.388 257.122 245.571C258.041 245.18 259.259 244.81 260.056 245.18C260.495 245.432 260.867 245.81 261.134 246.274Z" fill="#444053"/>
<path opacity="0.1" d="M244.636 242.102C244.636 242.102 244.744 240.986 243.296 242.912C242.081 244.325 240.684 245.527 239.151 246.48C239.151 246.48 232.971 251.328 232.633 253.588C232.295 255.848 230.293 265.508 231.358 268.734C232.423 271.961 240.497 287.428 240.497 287.428C240.497 287.428 238.379 290.221 238.877 293.512C239.374 296.803 239.993 301.33 239.712 302.325C239.432 303.32 240.05 305.801 239.074 306.668C238.099 307.535 237.129 309.028 240.082 311.018C240.082 311.018 240.637 312.696 240.133 313.065C239.629 313.435 247.544 317.287 250.662 315.24C253.781 313.193 259.412 296.803 259.52 293.135C259.629 289.468 257.792 277.37 256.791 274.513C255.79 271.656 252.779 260.539 251.498 258.059C250.216 255.578 244.636 242.102 244.636 242.102Z" fill="black"/>
<path d="M244.298 242.102C244.298 242.102 244.412 240.986 242.965 242.912C241.742 244.338 240.334 245.55 238.788 246.509C238.788 246.509 232.602 251.356 232.27 253.616C231.938 255.877 229.929 265.536 230.994 268.763C232.059 271.99 240.127 287.456 240.127 287.456C240.127 287.456 238.01 290.249 238.513 293.54C239.017 296.831 239.629 301.359 239.349 302.354C239.068 303.349 239.68 305.829 238.711 306.697C237.742 307.564 236.76 309.056 239.712 311.047C239.712 311.047 240.273 312.724 239.77 313.094C239.266 313.463 247.18 317.316 250.299 315.268C253.417 313.221 259.042 296.831 259.157 293.164C259.272 289.496 257.429 277.399 256.427 274.541C255.426 271.684 252.416 260.568 251.134 258.087C249.852 255.607 244.298 242.102 244.298 242.102Z" fill="#6C63FF"/>
<path opacity="0.1" d="M242.072 252.657C242.072 252.657 246.861 258.556 246.695 262.465C246.695 262.465 246.753 256.133 242.072 252.657Z" fill="black"/>
<path opacity="0.1" d="M258.238 244.213C258.238 244.213 261.344 242.081 265.253 247.504C265.253 247.504 268.091 249.302 268.927 249.743C269.762 250.183 270.712 261.719 270.712 261.719C270.712 261.719 272.549 266.694 272.045 269.538C271.541 272.381 273.499 282.203 273.499 282.203C273.499 282.203 276.726 299.838 276.618 300.328C276.509 300.819 273.327 294.805 273.384 291.799C273.442 288.792 270.712 279.503 270.323 278.948C269.934 278.394 267.256 262.43 267.256 262.43C267.256 262.43 265.088 255.663 263.691 253.432C262.294 251.2 260.572 246.971 259.864 246.224C259.345 245.725 258.765 245.308 258.143 244.988L258.238 244.213Z" fill="black"/>
<path d="M258.2 244.213C258.2 244.213 261.682 242.081 265.579 247.504C265.579 247.504 268.423 249.302 269.258 249.743C270.094 250.183 271.038 261.719 271.038 261.719C271.038 261.719 272.874 266.694 272.377 269.538C271.879 272.381 273.824 282.203 273.824 282.203C273.824 282.203 277.058 299.838 276.943 300.328C276.828 300.819 273.659 294.805 273.71 291.799C273.761 288.792 271.038 279.503 270.649 278.948C270.26 278.394 267.587 262.43 267.587 262.43C267.587 262.43 265.413 255.72 264.023 253.467C262.632 251.214 260.898 247.006 260.196 246.26C259.577 245.721 258.88 245.303 258.136 245.023L258.2 244.213Z" fill="#6C63FF"/>
<path d="M273.493 283.014C273.493 283.014 280.119 278.173 283.321 280.562C286.522 282.95 291.764 286.34 286.611 288.792C281.458 291.244 274.329 290.775 274.329 290.775L273.493 283.014Z" fill="#A1616A"/>
<path opacity="0.1" d="M268.882 329.733C267.894 332.099 267.077 343.948 266.523 347.729C265.732 346.215 264.775 344.41 264.45 343.841C263.703 342.043 263.054 340.196 262.505 338.312C263.143 336.606 264.871 331.716 264.871 329.924C264.871 327.735 268.06 324.985 268.06 324.985C268.63 325.577 269.016 326.356 269.164 327.209C269.312 328.062 269.213 328.946 268.882 329.733Z" fill="black"/>
<path opacity="0.1" d="M268.946 225.733C268.786 225.825 268.62 225.901 268.448 225.96C267.664 226.195 266.899 225.605 266.204 225.136C265.509 224.667 264.546 224.318 263.94 224.93C263.155 225.726 263.723 227.425 262.913 228.192C262.403 228.683 261.593 228.512 261 228.903C260.407 229.294 260.26 230.182 260.113 230.936C259.967 231.689 259.686 232.556 259.016 232.777C258.347 232.997 257.741 232.514 257.103 232.535C256.969 232.535 256.81 232.535 256.721 232.45C256.661 232.352 256.638 232.232 256.657 232.116C256.736 231.21 256.663 230.297 256.44 229.422C256.323 228.985 256.105 228.59 255.807 228.278C255.509 227.966 255.142 227.748 254.744 227.645C253.57 227.446 252.582 228.59 251.893 229.671C251.169 230.808 250.511 231.995 249.922 233.224C249.89 233.288 249.859 233.374 249.82 233.473C249.245 232.03 248.949 230.468 248.953 228.889C248.966 226.159 249.859 223.525 251.471 221.468C253.082 219.411 255.303 218.07 257.729 217.688C260.154 217.306 262.622 217.909 264.682 219.387C266.741 220.866 268.255 223.121 268.946 225.74V225.733Z" fill="black"/>
<path d="M251.906 229.493C252.594 228.413 253.583 227.268 254.756 227.467C255.154 227.57 255.52 227.788 255.818 228.099C256.115 228.409 256.334 228.802 256.453 229.237C256.676 230.112 256.747 231.026 256.663 231.931C256.649 232.05 256.674 232.172 256.733 232.272C256.823 232.386 256.982 232.365 257.116 232.357C257.754 232.357 258.423 232.805 259.029 232.599C259.635 232.393 259.986 231.512 260.126 230.758C260.266 230.005 260.426 229.138 261.013 228.725C261.599 228.313 262.396 228.491 262.926 228.015C263.736 227.247 263.168 225.541 263.953 224.752C264.558 224.141 265.521 224.489 266.216 224.958C266.912 225.427 267.677 226.017 268.461 225.783C268.721 225.68 268.974 225.559 269.22 225.42C270.464 224.894 272.071 225.79 273.085 224.845C273.455 224.431 273.721 223.916 273.857 223.352C274.138 222.595 274.326 221.798 274.418 220.985C274.509 220.161 274.308 219.329 273.857 218.668C273.219 217.801 272.071 217.581 271.223 216.941C270.535 216.338 269.965 215.586 269.545 214.73C269.127 213.874 268.574 213.109 267.913 212.47C267.578 212.156 267.172 211.95 266.739 211.875C266.306 211.8 265.863 211.858 265.458 212.044C265.214 212.235 264.942 212.377 264.654 212.463C264.341 212.471 264.033 212.377 263.768 212.193C260.872 210.672 257.499 210.942 254.323 211.397C253.042 211.509 251.784 211.848 250.598 212.399C250.006 212.678 249.475 213.096 249.042 213.625C248.608 214.154 248.282 214.78 248.086 215.462C247.831 216.557 248.028 217.744 247.716 218.824C247.505 219.535 247.078 220.182 246.823 220.9C246.147 222.862 246.957 225.022 247.301 227.091C247.678 229.351 247.486 231.796 248.347 233.935C248.519 234.355 248.704 235.087 249.132 234.81C249.444 234.603 249.769 233.388 249.929 233.04C250.522 231.814 251.183 230.629 251.906 229.493Z" fill="#3F3D56"/>
<path opacity="0.1" d="M233.552 265.884L232.047 270.646C232.047 270.646 235.612 285.423 237.282 288.529C238.953 291.635 241.402 295.637 241.402 295.637C244.2 297.037 247.31 297.468 250.331 296.874C255.12 295.822 269.099 293.029 269.099 293.029C269.429 293.095 269.77 293.061 270.084 292.93C270.399 292.798 270.675 292.574 270.885 292.282C271.523 291.287 274.673 290.79 274.673 290.79C274.673 290.79 278.346 284.833 273.838 282.346C273.838 282.346 273.283 283.717 270.885 282.779C268.487 281.841 267.766 283.526 267.766 283.526C267.766 283.526 263.863 284.4 261.695 284.087C259.527 283.774 254.119 283.654 253.557 283.156C253.488 283.087 253.407 283.033 253.319 282.999C253.231 282.965 253.138 282.95 253.045 282.956C252.952 282.962 252.861 282.989 252.777 283.034C252.693 283.079 252.618 283.142 252.556 283.22C251.91 282.96 251.309 282.581 250.777 282.097C250.331 281.543 249.718 282.722 249.718 282.722C249.718 282.722 248.934 282.225 249.157 281.606C249.38 280.988 248.436 278.621 248.436 278.621C248.185 277.718 248.128 276.761 248.271 275.828C248.545 274.584 246.874 270.142 246.874 270.142C246.854 269.388 246.929 268.634 247.097 267.903C247.378 266.787 244.98 264.548 244.98 264.548C244.98 264.548 242.639 251.889 237.684 256.019C232.729 260.148 233.552 265.884 233.552 265.884Z" fill="black"/>
<path d="M233.214 265.884L231.708 270.646C231.708 270.646 235.273 285.423 236.944 288.529C238.615 291.635 241.07 295.637 241.07 295.637C243.868 297.039 246.979 297.47 249.999 296.874C254.795 295.822 268.774 293.029 268.774 293.029C269.104 293.095 269.444 293.061 269.759 292.93C270.073 292.798 270.35 292.575 270.559 292.282C271.197 291.287 274.348 290.79 274.348 290.79C274.348 290.79 278.021 284.833 273.512 282.346C273.512 282.346 272.951 283.718 270.559 282.779C268.168 281.841 267.434 283.526 267.434 283.526C267.434 283.526 263.538 284.4 261.363 284.087C259.189 283.774 253.787 283.654 253.232 283.156C253.163 283.087 253.082 283.033 252.994 282.999C252.906 282.965 252.813 282.95 252.72 282.956C252.627 282.962 252.535 282.989 252.452 283.034C252.368 283.079 252.293 283.142 252.231 283.22C251.583 282.961 250.979 282.581 250.445 282.097C249.999 281.543 249.387 282.722 249.387 282.722C249.387 282.722 248.609 282.225 248.832 281.607C249.055 280.988 248.105 278.621 248.105 278.621C247.857 277.717 247.8 276.761 247.939 275.828C248.219 274.584 246.549 270.142 246.549 270.142C246.525 269.387 246.6 268.633 246.772 267.903C247.046 266.787 244.655 264.548 244.655 264.548C244.655 264.548 242.314 251.889 237.359 256.019C232.404 260.148 233.214 265.884 233.214 265.884Z" fill="#6C63FF"/>
<path opacity="0.1" d="M246.976 280.284C246.976 280.284 241.517 281.528 243.354 282.58C245.19 283.632 246.976 280.284 246.976 280.284Z" fill="black"/>
<g opacity="0.1">
<path opacity="0.1" d="M256.44 228.185C256.324 227.749 256.106 227.355 255.807 227.043C255.509 226.732 255.142 226.516 254.744 226.415C253.57 226.216 252.582 227.361 251.893 228.434C251.17 229.573 250.509 230.76 249.916 231.988C249.737 232.357 249.431 233.552 249.119 233.758C248.691 234.035 248.481 233.296 248.334 232.876C247.473 230.744 247.697 228.292 247.288 226.032C246.987 224.717 246.747 223.386 246.568 222.044C246.44 223.665 247.014 225.371 247.288 227.02C247.665 229.28 247.473 231.725 248.334 233.864C248.506 234.284 248.691 235.016 249.119 234.739C249.431 234.532 249.756 233.317 249.916 232.976C250.508 231.747 251.168 230.56 251.893 229.422C252.582 228.342 253.57 227.197 254.744 227.403C255.142 227.504 255.509 227.72 255.807 228.031C256.106 228.343 256.324 228.737 256.44 229.173C256.577 229.632 256.653 230.111 256.663 230.595C256.727 229.783 256.651 228.965 256.44 228.185Z" fill="black"/>
<path opacity="0.1" d="M273.844 222.314C273.709 222.877 273.443 223.39 273.072 223.8C272.058 224.745 270.451 223.857 269.207 224.383C268.952 224.489 268.716 224.66 268.449 224.745C267.664 224.973 266.899 224.39 266.204 223.921C265.509 223.451 264.546 223.096 263.94 223.707C263.155 224.503 263.723 226.202 262.913 226.97C262.403 227.46 261.593 227.29 261 227.681C260.407 228.071 260.26 228.953 260.113 229.706C259.967 230.46 259.686 231.327 259.016 231.547C258.347 231.767 257.741 231.284 257.103 231.313C256.969 231.313 256.81 231.313 256.721 231.227C256.699 231.201 256.683 231.17 256.676 231.135C256.676 231.384 256.676 231.632 256.676 231.881C256.662 231.998 256.687 232.117 256.746 232.215C256.835 232.329 256.995 232.308 257.129 232.308C257.766 232.308 258.436 232.748 259.042 232.542C259.648 232.336 259.999 231.462 260.139 230.701C260.279 229.941 260.439 229.088 261.025 228.676C261.612 228.263 262.409 228.441 262.938 227.965C263.748 227.197 263.181 225.498 263.965 224.702C264.571 224.091 265.534 224.439 266.229 224.909C266.924 225.378 267.69 225.968 268.474 225.733C268.732 225.629 268.986 225.511 269.233 225.378C270.477 224.852 272.084 225.74 273.098 224.795C273.467 224.384 273.733 223.871 273.869 223.309C274.15 222.549 274.338 221.751 274.43 220.935C274.459 220.659 274.459 220.38 274.43 220.104C274.308 220.862 274.111 221.604 273.844 222.314Z" fill="black"/>
</g>
<path d="M162.623 407.583C177.035 407.583 188.719 405.079 188.719 401.989C188.719 398.9 177.035 396.396 162.623 396.396C148.21 396.396 136.526 398.9 136.526 401.989C136.526 405.079 148.21 407.583 162.623 407.583Z" fill="#6C63FF"/>
<path d="M162.189 404.051C163.865 404.051 165.225 402.065 165.225 399.615C165.225 397.166 163.865 395.18 162.189 395.18C160.512 395.18 159.153 397.166 159.153 399.615C159.153 402.065 160.512 404.051 162.189 404.051Z" fill="#3F3D56"/>
<path d="M162.189 398.634C163.865 398.634 165.225 396.649 165.225 394.199C165.225 391.75 163.865 389.764 162.189 389.764C160.512 389.764 159.153 391.75 159.153 394.199C159.153 396.649 160.512 398.634 162.189 398.634Z" fill="#3F3D56"/>
<path d="M162.189 393.218C163.865 393.218 165.225 391.233 165.225 388.783C165.225 386.334 163.865 384.348 162.189 384.348C160.512 384.348 159.153 386.334 159.153 388.783C159.153 391.233 160.512 393.218 162.189 393.218Z" fill="#3F3D56"/>
<path d="M162.189 387.795C163.865 387.795 165.225 385.809 165.225 383.36C165.225 380.91 163.865 378.925 162.189 378.925C160.512 378.925 159.153 380.91 159.153 383.36C159.153 385.809 160.512 387.795 162.189 387.795Z" fill="#3F3D56"/>
<path d="M162.189 382.379C163.865 382.379 165.225 380.393 165.225 377.944C165.225 375.494 163.865 373.509 162.189 373.509C160.512 373.509 159.153 375.494 159.153 377.944C159.153 380.393 160.512 382.379 162.189 382.379Z" fill="#3F3D56"/>
<path d="M162.189 376.963C163.865 376.963 165.225 374.977 165.225 372.528C165.225 370.078 163.865 368.093 162.189 368.093C160.512 368.093 159.153 370.078 159.153 372.528C159.153 374.977 160.512 376.963 162.189 376.963Z" fill="#3F3D56"/>
<path d="M162.189 371.547C163.865 371.547 165.225 369.561 165.225 367.112C165.225 364.662 163.865 362.677 162.189 362.677C160.512 362.677 159.153 364.662 159.153 367.112C159.153 369.561 160.512 371.547 162.189 371.547Z" fill="#3F3D56"/>
<path d="M173.56 330.038C173.975 329.448 174.352 328.826 174.689 328.176L166.71 326.719L175.339 326.79C176.167 324.782 176.619 322.607 176.668 320.397C176.716 318.187 176.359 315.99 175.62 313.939L164.038 320.635L174.74 311.871C173.738 309.946 172.391 308.271 170.783 306.951C169.176 305.631 167.342 304.693 165.395 304.197C163.449 303.701 161.431 303.657 159.468 304.067C157.506 304.477 155.64 305.333 153.987 306.582C152.334 307.83 150.929 309.444 149.86 311.324C148.79 313.203 148.08 315.308 147.772 317.507C147.464 319.706 147.565 321.952 148.069 324.105C148.574 326.259 149.47 328.273 150.703 330.024C150.056 330.939 149.5 331.931 149.045 332.981L159.402 338.98L148.356 334.843C147.578 337.399 147.384 340.131 147.794 342.791C148.204 345.451 149.204 347.955 150.703 350.075C149.015 352.467 147.964 355.341 147.672 358.368C147.379 361.394 147.857 364.451 149.05 367.189C150.243 369.928 152.104 372.236 154.419 373.852C156.734 375.467 159.41 376.323 162.141 376.323C164.872 376.323 167.548 375.467 169.863 373.852C172.178 372.236 174.039 369.928 175.232 367.189C176.425 364.451 176.903 361.394 176.611 358.368C176.318 355.341 175.268 352.467 173.579 350.075C175.596 347.216 176.692 343.686 176.692 340.049C176.692 336.413 175.596 332.882 173.579 330.024L173.56 330.038Z" fill="#6C63FF"/>
<path opacity="0.1" d="M147.566 340.06C147.561 343.699 148.66 347.233 150.684 350.089C148.995 352.481 147.945 355.355 147.652 358.382C147.36 361.408 147.838 364.465 149.031 367.204C150.224 369.942 152.085 372.25 154.4 373.866C156.715 375.481 159.391 376.338 162.122 376.338C164.853 376.338 167.529 375.481 169.844 373.866C172.159 372.25 174.02 369.942 175.213 367.204C176.406 364.465 176.884 361.408 176.592 358.382C176.299 355.355 175.249 352.481 173.56 350.089C175.511 347.331 147.566 338.24 147.566 340.06Z" fill="black"/>
<path d="M599.472 459.469C613.884 459.469 625.568 456.965 625.568 453.876C625.568 450.786 613.884 448.282 599.472 448.282C585.059 448.282 573.375 450.786 573.375 453.876C573.375 456.965 585.059 459.469 599.472 459.469Z" fill="#6C63FF"/>
<path d="M599.038 455.937C600.715 455.937 602.074 453.951 602.074 451.501C602.074 449.052 600.715 447.066 599.038 447.066C597.362 447.066 596.002 449.052 596.002 451.501C596.002 453.951 597.362 455.937 599.038 455.937Z" fill="#3F3D56"/>
<path d="M599.038 450.521C600.715 450.521 602.074 448.535 602.074 446.085C602.074 443.636 600.715 441.65 599.038 441.65C597.362 441.65 596.002 443.636 596.002 446.085C596.002 448.535 597.362 450.521 599.038 450.521Z" fill="#3F3D56"/>
<path d="M599.038 445.105C600.715 445.105 602.074 443.119 602.074 440.669C602.074 438.22 600.715 436.234 599.038 436.234C597.362 436.234 596.002 438.22 596.002 440.669C596.002 443.119 597.362 445.105 599.038 445.105Z" fill="#3F3D56"/>
<path d="M599.038 439.681C600.715 439.681 602.074 437.696 602.074 435.246C602.074 432.797 600.715 430.811 599.038 430.811C597.362 430.811 596.002 432.797 596.002 435.246C596.002 437.696 597.362 439.681 599.038 439.681Z" fill="#3F3D56"/>
<path d="M599.038 434.265C600.715 434.265 602.074 432.28 602.074 429.83C602.074 427.381 600.715 425.395 599.038 425.395C597.362 425.395 596.002 427.381 596.002 429.83C596.002 432.28 597.362 434.265 599.038 434.265Z" fill="#3F3D56"/>
<path d="M599.038 428.849C600.715 428.849 602.074 426.864 602.074 424.414C602.074 421.965 600.715 419.979 599.038 419.979C597.362 419.979 596.002 421.965 596.002 424.414C596.002 426.864 597.362 428.849 599.038 428.849Z" fill="#3F3D56"/>
<path d="M599.038 423.433C600.715 423.433 602.074 421.447 602.074 418.998C602.074 416.548 600.715 414.563 599.038 414.563C597.362 414.563 596.002 416.548 596.002 418.998C596.002 421.447 597.362 423.433 599.038 423.433Z" fill="#3F3D56"/>
<path d="M610.409 381.924C610.824 381.334 611.202 380.712 611.538 380.062L603.56 378.605L612.188 378.676C613.016 376.668 613.469 374.492 613.517 372.283C613.565 370.073 613.209 367.876 612.469 365.825L600.888 372.521L611.589 363.757C610.587 361.832 609.24 360.157 607.633 358.837C606.025 357.517 604.191 356.579 602.244 356.083C600.298 355.587 598.28 355.543 596.318 355.953C594.355 356.363 592.489 357.219 590.836 358.467C589.183 359.716 587.778 361.33 586.709 363.21C585.64 365.089 584.929 367.194 584.621 369.393C584.313 371.592 584.414 373.838 584.919 375.991C585.423 378.145 586.319 380.159 587.552 381.91C586.905 382.825 586.349 383.817 585.894 384.867L596.251 390.866L585.206 386.729C584.427 389.285 584.233 392.017 584.643 394.677C585.053 397.337 586.053 399.841 587.552 401.961C585.864 404.353 584.813 407.227 584.521 410.254C584.228 413.28 584.706 416.337 585.899 419.075C587.092 421.814 588.953 424.122 591.268 425.738C593.583 427.353 596.259 428.209 598.99 428.209C601.722 428.209 604.398 427.353 606.713 425.738C609.028 424.122 610.888 421.814 612.081 419.075C613.275 416.337 613.752 413.28 613.46 410.254C613.168 407.227 612.117 404.353 610.428 401.961C612.445 399.102 613.541 395.572 613.541 391.935C613.541 388.299 612.445 384.768 610.428 381.91L610.409 381.924Z" fill="#6C63FF"/>
<path opacity="0.1" d="M584.415 391.946C584.41 395.585 585.509 399.12 587.534 401.975C585.845 404.368 584.794 407.241 584.502 410.268C584.21 413.294 584.687 416.352 585.88 419.09C587.074 421.828 588.934 424.137 591.249 425.752C593.564 427.367 596.24 428.224 598.971 428.224C601.703 428.224 604.379 427.367 606.694 425.752C609.009 424.137 610.869 421.828 612.062 419.09C613.256 416.352 613.733 413.294 613.441 410.268C613.149 407.241 612.098 404.368 610.409 401.975C612.361 399.217 584.415 390.127 584.415 391.946Z" fill="black"/>
<path opacity="0.1" d="M257.919 77.4454C263.298 77.4454 267.658 72.5861 267.658 66.592C267.658 60.5978 263.298 55.7385 257.919 55.7385C252.541 55.7385 248.181 60.5978 248.181 66.592C248.181 72.5861 252.541 77.4454 257.919 77.4454Z" fill="#6C63FF"/>
<path opacity="0.1" d="M292.759 36.3913C301.776 36.3913 309.085 28.2449 309.085 18.1957C309.085 8.14648 301.776 0 292.759 0C283.743 0 276.433 8.14648 276.433 18.1957C276.433 28.2449 283.743 36.3913 292.759 36.3913Z" fill="#6C63FF"/>
<path opacity="0.1" d="M271.152 124.683C280.169 124.683 287.479 116.536 287.479 106.487C287.479 96.4381 280.169 88.2916 271.152 88.2916C262.136 88.2916 254.826 96.4381 254.826 106.487C254.826 116.536 262.136 124.683 271.152 124.683Z" fill="#6C63FF"/>
<path opacity="0.1" d="M614.733 208.227C620.111 208.227 624.471 203.368 624.471 197.373C624.471 191.379 620.111 186.52 614.733 186.52C609.355 186.52 604.995 191.379 604.995 197.373C604.995 203.368 609.355 208.227 614.733 208.227Z" fill="#6C63FF"/>
<path opacity="0.1" d="M579.887 167.173C588.904 167.173 596.213 159.026 596.213 148.977C596.213 138.928 588.904 130.781 579.887 130.781C570.87 130.781 563.561 138.928 563.561 148.977C563.561 159.026 570.87 167.173 579.887 167.173Z" fill="#6C63FF"/>
<path opacity="0.1" d="M601.5 255.464C610.516 255.464 617.826 247.318 617.826 237.269C617.826 227.219 610.516 219.073 601.5 219.073C592.483 219.073 585.174 227.219 585.174 237.269C585.174 247.318 592.483 255.464 601.5 255.464Z" fill="#6C63FF"/>
<path opacity="0.1" d="M64.2647 223.181C67.3113 223.181 69.7811 220.429 69.7811 217.033C69.7811 213.638 67.3113 210.885 64.2647 210.885C61.2181 210.885 58.7483 213.638 58.7483 217.033C58.7483 220.429 61.2181 223.181 64.2647 223.181Z" fill="#6C63FF"/>
<path opacity="0.1" d="M87.912 204.069C93.019 204.069 97.1591 199.455 97.1591 193.763C97.1591 188.071 93.019 183.457 87.912 183.457C82.8049 183.457 78.6648 188.071 78.6648 193.763C78.6648 199.455 82.8049 204.069 87.912 204.069Z" fill="#6C63FF"/>
<path opacity="0.1" d="M43.6529 220.054C48.76 220.054 52.9001 215.44 52.9001 209.748C52.9001 204.056 48.76 199.442 43.6529 199.442C38.5459 199.442 34.4058 204.056 34.4058 209.748C34.4058 215.44 38.5459 220.054 43.6529 220.054Z" fill="#6C63FF"/>
<path opacity="0.1" d="M473.054 186.221C476.1 186.221 478.57 183.469 478.57 180.073C478.57 176.678 476.1 173.925 473.054 173.925C470.007 173.925 467.537 176.678 467.537 180.073C467.537 183.469 470.007 186.221 473.054 186.221Z" fill="#6C63FF"/>
<path opacity="0.1" d="M496.701 167.109C501.808 167.109 505.948 162.495 505.948 156.803C505.948 151.111 501.808 146.496 496.701 146.496C491.594 146.496 487.454 151.111 487.454 156.803C487.454 162.495 491.594 167.109 496.701 167.109Z" fill="#6C63FF"/>
<path opacity="0.1" d="M452.442 183.094C457.549 183.094 461.689 178.48 461.689 172.788C461.689 167.096 457.549 162.482 452.442 162.482C447.334 162.482 443.194 167.096 443.194 172.788C443.194 178.48 447.334 183.094 452.442 183.094Z" fill="#6C63FF"/>
<path opacity="0.1" d="M138.121 126.922C150.889 126.922 161.239 115.386 161.239 101.157C161.239 86.9268 150.889 75.3912 138.121 75.3912C125.353 75.3912 115.003 86.9268 115.003 101.157C115.003 115.386 125.353 126.922 138.121 126.922Z" fill="#6C63FF"/>
<path opacity="0.1" d="M270.132 201.318C277.5 201.318 283.474 194.661 283.474 186.449C283.474 178.237 277.5 171.58 270.132 171.58C262.764 171.58 256.791 178.237 256.791 186.449C256.791 194.661 262.764 201.318 270.132 201.318Z" fill="#6C63FF"/>
<path opacity="0.1" d="M402.144 297.983C409.512 297.983 415.485 291.325 415.485 283.113C415.485 274.901 409.512 268.244 402.144 268.244C394.775 268.244 388.802 274.901 388.802 283.113C388.802 291.325 394.775 297.983 402.144 297.983Z" fill="#6C63FF"/>
<path d="M162.623 421.18C204.712 421.18 238.832 413.543 238.832 404.122C238.832 394.7 204.712 387.063 162.623 387.063C120.533 387.063 86.4133 394.7 86.4133 404.122C86.4133 413.543 120.533 421.18 162.623 421.18Z" stroke="#444053" stroke-miterlimit="10"/>
<path d="M599.472 471.645C641.561 471.645 675.681 464.007 675.681 454.586C675.681 445.165 641.561 437.528 599.472 437.528C557.382 437.528 523.262 445.165 523.262 454.586C523.262 464.007 557.382 471.645 599.472 471.645Z" stroke="#444053" stroke-miterlimit="10"/>
<path d="M76.5278 471.645C118.617 471.645 152.737 464.007 152.737 454.586C152.737 445.165 118.617 437.528 76.5278 437.528C34.4385 437.528 0.318359 445.165 0.318359 454.586C0.318359 464.007 34.4385 471.645 76.5278 471.645Z" stroke="#444053" stroke-miterlimit="10"/>
</g>
<defs>
<linearGradient id="paint0_linear" x1="260.604" y1="423.384" x2="260.604" y2="209.862" gradientUnits="userSpaceOnUse">
<stop stop-color="#808080" stop-opacity="0.25"/>
<stop offset="0.54" stop-color="#808080" stop-opacity="0.12"/>
<stop offset="1" stop-color="#808080" stop-opacity="0.1"/>
</linearGradient>
<linearGradient id="paint1_linear" x1="-29087.3" y1="84967.8" x2="-33967.9" y2="84967.8" gradientUnits="userSpaceOnUse">
<stop stop-color="#808080" stop-opacity="0.25"/>
<stop offset="0.54" stop-color="#808080" stop-opacity="0.12"/>
<stop offset="1" stop-color="#808080" stop-opacity="0.1"/>
</linearGradient>
<clipPath id="clip0">
<rect width="676" height="472" fill="white"/>
</clipPath>
</defs>
</svg>
