<svg xmlns="http://www.w3.org/2000/svg" height="50" viewBox="0 -3 512.001 512" width="50"><path d="M460.34 337.68l35.027-35.032c22.176-22.171 22.18-58.253.004-80.437a56.828 56.828 0 0 0-23.707-14.227c7.14-9.699 11.004-21.375 11.004-33.644 0-15.192-5.918-29.477-16.664-40.219-10.738-10.742-25.024-16.66-40.219-16.66-.637 0-1.273.012-1.91.031.496-15.183-5.035-30.535-16.602-42.105-11.566-11.563-26.937-17.102-42.097-16.598.02-.633.031-1.273.031-1.91 0-15.195-5.918-29.477-16.66-40.219-22.172-22.172-58.254-22.176-80.438 0L256 28.77l-12.105-12.106C233.152 5.918 218.867 0 203.672 0c-15.192 0-29.473 5.918-40.215 16.656-11.57 11.57-17.09 26.926-16.586 42.121a52.581 52.581 0 0 0-1.922-.047c-15.191 0-29.476 5.915-40.226 16.657-11.567 11.574-17.086 26.93-16.582 42.12-.645-.023-1.286-.046-1.93-.046-15.191 0-29.477 5.918-40.211 16.656-10.746 10.742-16.664 25.028-16.664 40.223 0 12.265 3.86 23.941 11.004 33.637-8.86 2.671-16.98 7.507-23.711 14.234-22.121 22.129-22.172 58.098-.149 80.281.055.059.11.113.165.172l35.078 35.07c.047.051.097.102.148.153a57.596 57.596 0 0 0 6.715 5.75L48.21 354.012c-10.09 10.09-15.23 23.836-14.469 38.707.727 14.277 6.871 27.879 17.293 38.3l59.332 59.336c11.008 11.004 25.461 16.508 39.918 16.508s28.914-5.504 39.918-16.508l27.578-27.582a182.277 182.277 0 0 0 38.227 4.07c12.816 0 25.637-1.363 38.215-4.062l27.57 27.574c11.008 11.004 25.46 16.508 39.918 16.508 14.453-.004 28.914-5.504 39.918-16.508l59.336-59.335c22.008-22.008 24.508-55.32 5.57-74.262l-12.637-12.637 6.235-6.238c.07-.067.137-.133.207-.203zM185.164 38.367c4.945-4.945 11.52-7.668 18.512-7.668 6.992 0 13.566 2.723 18.512 7.668l46.98 46.98c10.207 10.212 10.207 26.821 0 37.028-4.945 4.945-11.52 7.668-18.508 7.668h-.004c-6.992-.004-13.562-2.723-18.508-7.668l-.02-.02-46.952-46.953c-.04-.039-.074-.078-.117-.113-10.102-10.223-10.067-26.754.105-36.922zm-58.8 95.684c-10.137-10.215-10.114-26.774.066-36.953 4.949-4.946 11.527-7.668 18.52-7.668 6.984 0 13.55 2.718 18.495 7.66.004 0 .008.004.008.008a.6.6 0 0 1 .05.047l46.927 46.925c.027.032.062.063.093.094l11.66 11.66c4.946 4.946 7.672 11.52 7.672 18.516 0 6.992-2.722 13.566-7.667 18.508-4.946 4.945-11.52 7.668-18.512 7.668-6.992 0-13.567-2.723-18.508-7.668a7.97 7.97 0 0 0-.188-.18l-11.511-11.516c-.016-.015-.031-.03-.047-.05l-46.988-46.98-.004-.005-.067-.066zM67.71 155.824c4.941-4.941 11.512-7.664 18.504-7.664 6.992 0 13.566 2.723 18.512 7.668l47.035 47.035c10.156 10.211 10.136 26.782-.047 36.973-4.945 4.941-11.524 7.664-18.516 7.664-6.992 0-13.566-2.723-18.508-7.668-.062-.059-.12-.121-.183-.18L67.855 193l-.148-.152c-4.945-4.946-7.668-11.516-7.668-18.508-.004-6.992 2.723-13.567 7.672-18.516zM38.496 281.102c-.059-.063-.117-.122-.176-.18-10.187-10.207-10.18-26.8.02-37 4.945-4.945 11.52-7.668 18.512-7.668 6.992 0 13.57 2.723 18.515 7.672l35.235 35.23c10.207 10.207 10.207 26.817.003 37.024-4.945 4.945-11.52 7.668-18.507 7.668h-.004a26.72 26.72 0 0 1-3.805-.274c-.094-.02-.187-.031-.281-.047a25.983 25.983 0 0 1-14.317-7.234c-.039-.043-.082-.082-.12-.125zM216.95 431.035c-.133-.035-.262-.05-.39-.082a15.536 15.536 0 0 0-.922-.2c-.227-.038-.453-.065-.684-.097a16.379 16.379 0 0 0-.766-.082 11.2 11.2 0 0 0-.808-.039c-.219-.008-.434-.012-.652-.008-.29.004-.575.02-.86.043-.207.016-.414.032-.62.055-.282.031-.56.074-.837.121a12.78 12.78 0 0 0-.652.125c-.254.055-.504.113-.754.184-.238.062-.477.132-.715.207-.223.074-.437.152-.656.23-.254.098-.508.195-.754.305a16.317 16.317 0 0 0-1.332.656c-.2.11-.395.227-.59.348-.219.137-.441.273-.656.422-.219.152-.434.312-.645.476-.176.133-.347.266-.52.406-.25.211-.488.43-.722.657-.09.086-.187.16-.277.25L168.5 468.648c-10.043 10.043-26.379 10.043-36.422 0l-59.332-59.332c-5.039-5.039-8.004-11.488-8.344-18.164-.308-6.082 1.649-11.562 5.52-15.43l21.195-21.199c.324.004.649.024.977.024h.004c15.187 0 29.468-5.918 40.215-16.66 16.44-16.446 20.68-40.532 12.734-60.93 10.672-2.25 20.48-7.523 28.379-15.414a56.603 56.603 0 0 0 16.047-32.117 57.136 57.136 0 0 0 14.203 1.789h.004c15.187 0 29.468-5.914 40.215-16.656 10.742-10.743 16.66-25.028 16.66-40.22 0-4.847-.61-9.6-1.778-14.179 12.11-1.719 23.297-7.273 32.098-16.082 22.176-22.172 22.176-58.254.004-80.433l-13.172-13.172 12.11-12.106c10.21-10.207 26.82-10.207 37.023-.004 4.945 4.946 7.668 11.52 7.668 18.512 0 6.992-2.723 13.566-7.668 18.512a15.306 15.306 0 0 0-4.496 10.855c0 3.926 1.496 7.856 4.496 10.852 5.996 5.996 15.71 5.996 21.707 0 10.203-10.203 26.812-10.207 37.023 0 10.207 10.21 10.203 26.82-.004 37.027a15.304 15.304 0 0 0-4.496 10.852 15.28 15.28 0 0 0 4.496 10.851c5.997 5.996 15.711 5.996 21.707.004 4.946-4.945 11.524-7.668 18.516-7.672 6.992 0 13.566 2.723 18.508 7.668 4.95 4.95 7.672 11.524 7.672 18.516 0 6.898-2.653 13.39-7.473 18.308-.07.07-.14.137-.207.207l-22.012 22.016c-5.48 5.48-6.015 14.188-1.246 20.297l.79 1.012c4.757 6.097 13.312 7.699 19.952 3.742 10.293-6.133 23.407-4.488 31.891 3.992 10.207 10.211 10.207 26.82 0 37.027l-35.23 35.227-.204.21L362.61 392c-37.942 37.941-93.755 52.898-145.66 39.035zm227.883-52.57c6.73 6.734 4.129 21.152-5.57 30.851l-59.336 59.332c-10.043 10.043-26.38 10.043-36.422 0l-16.328-16.328a181.708 181.708 0 0 0 57.14-38.613l47.875-47.879zm0 0"/></svg>